<?xml version="1.0" standalone="no"?>
<!DOCTYPE svg PUBLIC "-//W3C//DTD SVG 1.1//EN" "http://www.w3.org/Graphics/SVG/1.1/DTD/svg11.dtd" >
<svg xmlns="http://www.w3.org/2000/svg">
<metadata></metadata>
<defs>
<font id="dandelion_in_the_springRg" horiz-adv-x="1271" >
<font-face units-per-em="2048" ascent="1536" descent="-512" />
<missing-glyph horiz-adv-x="366" />
<glyph horiz-adv-x="2048" />
<glyph horiz-adv-x="2048" />
<glyph unicode="&#xd;" horiz-adv-x="2048" />
<glyph unicode=" "  horiz-adv-x="366" />
<glyph unicode="&#x09;" horiz-adv-x="366" />
<glyph unicode="&#xa0;" horiz-adv-x="366" />
<glyph unicode="!" horiz-adv-x="235" d="M8 1374q2 12 11.5 24.5t20.5 18.5t22.5 3t17.5 -21q18 -287 38.5 -566.5t28.5 -566.5q0 -16 -9 -29.5t-21.5 -19.5t-23.5 -1t-17 26q2 143 -6.5 284.5t-20.5 282.5t-24.5 282.5t-16.5 282.5zM57 57q6 29 26.5 42.5t47.5 13.5q20 0 28.5 -10.5t5.5 -25t-14.5 -26.5 t-27.5 -14q-2 0 -3 -1t-5 -1q-16 -18 -40 -15t-18 37z" />
<glyph unicode="&#x22;" horiz-adv-x="409" d="M29 1368q2 12 11 24.5t20.5 18.5t22.5 3t17 -21q4 -109 27 -214.5t27 -215.5q0 -16 -9.5 -29.5t-21.5 -20t-23.5 -1t-17.5 25.5q-2 55 -9 108.5t-16.5 107.5t-17.5 107.5t-10 106.5zM266 981q0 90 5 178t5 176q2 16 14.5 28.5t25 16.5t22.5 -3t10 -29q0 -86 -5 -171 t-5 -171q0 -16 -9.5 -29.5t-21.5 -20t-23.5 -1t-17.5 25.5z" />
<glyph unicode="#" horiz-adv-x="866" d="M3 854q3 12 12.5 23.5t21.5 15.5q33 0 85 2t118 4q-6 68 -9.5 135.5t-5.5 134.5q2 12 11.5 24.5t20.5 19t22.5 3t17.5 -21.5q2 -74 6 -146.5t10 -146.5l232 6l6 213q2 16 14.5 28.5t24.5 16.5t22.5 -3t10.5 -29q-2 -55 -3.5 -111.5t-5.5 -112.5l150 6h16l15 -6l6 -6 q0 -2 2 -2q2 -6 2 -20q-4 -12 -12 -25l-2 -2q-12 -12 -27 -14h-14q-25 -2 -61 -2t-79 -2q-4 -37 -5 -74t-3 -74l176 6h17l14 -6l6 -6q0 -2 2 -2q2 -6 2 -21q-4 -12 -12 -24l-2 -2q-12 -12 -27 -15h-14l-166 -6q-6 -98 -6 -196q-4 -14 -13.5 -24.5t-20.5 -13.5t-21.5 2 t-16.5 23q0 53 2 103.5t6 103.5l-190 -4q2 -37 4 -65.5t4 -55t3 -55.5t1 -65q0 -16 -9 -29.5t-21.5 -20t-23.5 -1.5t-17 26q0 39 -1.5 70.5t-2.5 61.5t-3 60.5t-6 69.5q-70 -2 -129 -4t-94 -2q-18 2 -23.5 13.5t-2.5 23.5t12.5 23.5t21.5 15.5q35 0 89.5 2t119.5 4l-14 145 q-68 -2 -125.5 -4t-91.5 -2q-18 2 -23.5 13.5t-2.5 23.5zM319 827l13 -147l200 6q2 37 3.5 74t5.5 74z" />
<glyph unicode="$" horiz-adv-x="858" d="M29 973q0 37 34.5 75.5t90 75.5t122 69t127.5 56q-2 66 -3 132.5t-1 134.5q2 12 11.5 24t20.5 18.5t22.5 3.5t17.5 -22q0 -68 1 -134.5t3 -131.5q68 20 105 22q35 2 67.5 -1t59 -14t44 -34.5t21.5 -60.5q10 -6 12 -17.5t-3 -22.5t-15 -20.5t-23 -11.5q-18 0 -31.5 12.5 t-9.5 32.5q-4 27 -19 41t-37.5 19.5t-48.5 3.5t-46 -6q-33 -6 -72 -19l13 -350q51 0 101 -3t91 -12.5t67.5 -28t32.5 -46.5q8 -47 -12 -96.5t-60 -96.5t-93.5 -87t-110.5 -66q4 -82 5 -164t3 -164q0 -16 -9 -29.5t-21.5 -19.5t-23.5 -1t-18 25q-2 82 -3 163t-5 163 q-57 -16 -106 -8t-84 43q-23 25 -33 54.5t-25 57.5q-4 14 1.5 28.5t14.5 23t22.5 9.5t25.5 -11q12 -25 21.5 -51.5t27.5 -47.5q23 -25 57.5 -28.5t75.5 6.5q-2 78 -4 155.5t-6 155.5q-72 -4 -142.5 -4t-128 17.5t-92 60.5t-32.5 127zM100 975q-12 -31 5.5 -54.5t48 -40 t64.5 -25.5t52 -11q20 -4 59.5 -2t90.5 4l-12 330q-47 -16 -96.5 -38t-92.5 -47.5t-74.5 -54t-44.5 -61.5zM496 774l10 -287q39 18 74.5 46t64.5 59t47.5 63.5t20.5 63.5q-12 10 -22.5 20.5t-26.5 16.5q-31 14 -75 17t-93 1z" />
<glyph unicode="%" horiz-adv-x="1138" d="M51 1171q4 86 32 167t69 122q16 16 42.5 45t51.5 31h8q72 8 122 -20.5t81.5 -80t46 -113.5t14.5 -120q2 -39 -14.5 -80t-40.5 -69q-27 -31 -59.5 -65t-70.5 -57.5t-81 -31.5t-90 10q-63 27 -89 101.5t-22 160.5zM72 33v2v-2q2 4 22 47q29 53 347.5 696t357.5 728t49 120 q8 18 21.5 26.5t24.5 6.5t18.5 -13.5t21.5 -31.5q-41 -74 -407.5 -816.5t-393.5 -797.5q-35 -23 -55.5 -10.5t-5.5 45.5zM121 1188.5q-4 -66.5 13.5 -123.5t66.5 -82q41 -20 83 -4t75.5 51t57 78t29.5 76q18 35 15.5 78t-19 81.5t-45 70.5t-62.5 45.5t-70 4t-68 -50.5 q-29 -35 -50.5 -96.5t-25.5 -128zM582 459q4 86 31.5 167t68.5 122q16 16 43 44.5t51 30.5h8q72 8 122 -20.5t82 -79.5t46.5 -113.5t14.5 -120.5q2 -39 -14.5 -79.5t-41.5 -69.5q-27 -31 -59.5 -64.5t-70.5 -57t-81 -32t-90 10.5q-63 27 -88.5 101.5t-21.5 160.5zM651 476.5 q-4 -66.5 13.5 -124t66.5 -82.5q41 -20 83 -3.5t76 51t57.5 77.5t29.5 76q18 35 15 78t-19.5 82t-45 70.5t-62.5 45t-69.5 4t-68.5 -50.5q-29 -35 -50.5 -96t-25.5 -127.5z" />
<glyph unicode="&#x26;" horiz-adv-x="892" d="M11.5 784.5q21.5 69.5 93 120.5t196.5 82q55 14 129 23.5t129 1.5q29 -4 75 -11.5t90 -25t73.5 -46t23.5 -75.5q-4 -29 -5 -55.5t-11 -53.5q-23 -57 -67 -117.5t-96 -121t-105.5 -117.5t-92.5 -110l-18 -25l109 -94l61 -62q49 27 91 53.5t67 43.5q18 6 28.5 0.5 t13.5 -16.5t-1 -24.5t-17 -23.5q-31 -23 -62.5 -43t-64.5 -39q39 -29 82 -35q16 -6 20.5 -18t0.5 -24.5t-15.5 -21.5t-25.5 -11q-41 4 -76 24.5t-64 46.5q-29 -12 -57.5 -23.5t-56.5 -21.5q-47 -14 -93.5 -17t-77 12t-38.5 51t18 98q14 31 30.5 61.5t33.5 58.5 q-57 53 -108.5 103.5t-100.5 113.5q-76 96 -104.5 182.5t-7 156zM67.5 728q2.5 -42 20.5 -83t46 -78.5t46 -62.5q45 -57 94.5 -108.5t102.5 -98.5q51 72 108.5 139.5t114.5 132.5q41 47 78 92.5t63 102.5q23 49 6.5 82t-52.5 52.5t-80 27.5t-76 8q-53 2 -115 -1t-121 -17.5 t-113.5 -41t-93.5 -69.5q-31 -35 -28.5 -77zM326 31q35 -16 86 -6t108 34l-43 43q-25 23 -49.5 44.5t-48.5 41.5q-29 -39 -46 -80.5t-7 -76.5z" />
<glyph unicode="'" horiz-adv-x="215" d="M47 1335q2 16 16.5 28.5t28.5 16.5t26.5 -3t12.5 -29q0 -86 -5 -171t-5 -171q0 -16 -9.5 -29.5t-21.5 -20t-23.5 -1t-17.5 25.5q0 90 -1 178t-1 176z" />
<glyph unicode="(" horiz-adv-x="473" d="M12.5 917.5q18.5 176.5 87 335t186 289.5t287.5 217q20 0 28.5 -10t5.5 -24.5t-14 -26.5t-28 -15q-145 -80 -247.5 -202.5t-160 -270t-70.5 -310.5t16.5 -323.5t103.5 -310t192 -268.5q61 -61 137 -113.5t162 -70.5q14 -10 14.5 -21.5t-7 -23t-18.5 -19.5t-23 -12 q-6 -2 -35 7t-73 32.5t-100.5 62.5t-113.5 99q-127 131 -207 292.5t-110.5 335.5t-12 350.5z" />
<glyph unicode=")" horiz-adv-x="526" d="M-258 -208q0 11 14 22q86 18 162 70.5t137 113.5q117 119 192 268.5t104.5 310t16 323.5t-70.5 310.5t-159.5 270.5t-248.5 202q-16 2 -27.5 14.5t-14.5 27t4 24.5t30 10q170 -86 288 -217t186.5 -289.5t87 -335t-12.5 -350.5t-110.5 -335.5t-206.5 -292.5 q-59 -59 -114.5 -98.5t-99.5 -63t-73 -32.5t-35 -7q-12 4 -23.5 12t-18.5 19.5t-7 22.5z" />
<glyph unicode="*" horiz-adv-x="1222" d="M8 731q23 51 78 78t132 31t150.5 -11.5t133 -47t80.5 -76.5q33 27 64.5 61.5t63 70t66.5 69.5t72 59q111 72 192.5 32.5t106.5 -178.5q10 -47 -6.5 -98t-34.5 -98q-39 -104 -99.5 -195.5t-125 -181.5t-125 -182.5t-97.5 -196.5q-10 -29 -12 -58.5t-6 -58.5l80 -92 q4 -12 1 -27.5t-11.5 -26t-20.5 -12.5t-26 9q-23 29 -49.5 52t-43.5 56q-14 35 -2.5 86t33 103.5t47 97.5t37.5 67q43 72 93 141.5t98.5 140.5t91.5 143.5t73 152.5q16 37 26.5 75t6.5 77q-6 90 -41 117.5t-80 18.5t-94 -43t-84 -69q-49 -47 -96 -105.5t-109 -95.5 q-27 -16 -39 -3.5t-8 30.5l-4 6q-4 6 -8 19q-23 31 -78 53t-117.5 33.5t-119 10.5t-80.5 -17q-10 -8 -20.5 -19.5t-20.5 -21.5q4 -14 4 -29.5t6 -30.5q31 -66 100.5 -139.5t152.5 -141t169 -123t154 -81.5q18 -6 21 -20.5t-3 -27t-19.5 -21.5t-29.5 -5q-80 33 -151.5 80 t-139.5 100q-35 29 -65.5 53.5t-60.5 49t-57.5 52.5t-58.5 62q-23 29 -43 56.5t-37 60.5q-33 78 -10 129z" />
<glyph unicode="+" horiz-adv-x="706" d="M-9 696.5q3 12.5 12 23.5t22 15l223 8v355q2 16 14 28.5t24.5 16.5t22.5 -3t10 -30v-362l308 10h16l14 -6l7 -7q0 -2 2 -2q2 -6 2 -20q-4 -12 -13 -25l-2 -2q-12 -12 -26 -14h-15l-293 -10v-209v-8v-6q-4 -16 -8 -23l-4 -6q-2 -2 -2 -4l-16 -13h-2q-8 -6 -21 -2q0 2 -4 2 l-10 13q0 2 -1 3t-1 3q-2 2 -2 8v238l-232 -9q-18 2 -23 13.5t-2 24z" />
<glyph unicode="," horiz-adv-x="243" d="M25 0q-10 29 9 61.5t48 38.5q12 0 17 -2t14 -10l2 -4q4 -20 0 -31q29 -10 39 -34.5t6 -56.5t-17.5 -66.5t-29.5 -61.5q-10 -10 -19.5 -14t-25.5 0l-2 2q-18 14 -16.5 34.5t16.5 30.5q10 23 19 53.5t-1 47.5l-33 -6l-15 6t-11 12z" />
<glyph unicode="-" horiz-adv-x="526" d="M-11 696.5q3 12.5 12 23.5t22 15q106 4 210.5 12.5t212.5 10.5h17l14 -6l6 -7q0 -2 2 -2q2 -6 2 -20q-4 -12 -12 -25l-2 -2q-12 -12 -27 -14h-14q-106 -2 -210 -10.5t-208 -12.5q-18 2 -23 13.5t-2 24z" />
<glyph unicode="." horiz-adv-x="200" d="M33 45v8q6 37 37 47q2 0 14 1t14 1q31 0 34 -27.5t-11 -43.5q-6 -10 -25.5 -17.5t-32.5 -11.5h-2q-14 4 -19 17.5t-9 25.5zM100 92l2 -2v2h-2z" />
<glyph unicode="/" horiz-adv-x="866" d="M-12 35q-4 -8 23.5 45t346 696t357.5 728t49 120q8 18 21.5 26.5t24.5 6.5t18.5 -13.5t21.5 -31.5q-41 -74 -407.5 -816.5t-393.5 -797.5q-35 -23 -55.5 -10.5t-5.5 47.5z" />
<glyph unicode="0" horiz-adv-x="1126" d="M13.5 683q-9.5 128 0 250t31.5 214q14 53 25.5 88t27 63.5t34.5 58.5t50 75q135 125 255 159.5t219.5 4t177 -117.5t131 -208t80 -265.5t22.5 -291t-40 -282.5t-107 -243q-25 -37 -73 -72.5t-104.5 -63t-116 -45t-106.5 -17.5q-129 0 -220 60.5t-151.5 157.5t-93 222 t-42 253zM78 911.5q-10 -147.5 11.5 -299t76.5 -274.5t146 -199t220 -71q98 4 191.5 45.5t148.5 119.5q68 92 100 215t33 256.5t-27 267.5t-78 246.5t-120.5 194.5t-156.5 112.5t-184.5 0t-205.5 -143.5q-68 -72 -106.5 -197.5t-48.5 -273z" />
<glyph unicode="1" horiz-adv-x="718" d="M-2 1234q2 13 12 26q106 88 216 167.5t214 167.5q16 12 28.5 11.5t18.5 -11.5q12 4 21.5 -3t9.5 -29q0 -375 -5 -757t-5 -759q0 -16 -9.5 -29.5t-21.5 -19.5t-23.5 -1t-17.5 26q0 371 5 747.5t5 745.5q-98 -78 -200.5 -155t-200.5 -157q-16 -10 -27.5 -7t-16.5 13.5 t-3 23.5z" />
<glyph unicode="2" horiz-adv-x="1093" d="M-10 8.5q-2 14.5 3 32.5t15.5 31.5t24.5 11.5q117 100 253 200.5t261 214t223 251t137 315.5q29 129 -4 222t-103.5 150.5t-171 77t-206.5 -1.5q-70 -12 -115 -28.5t-83 -40t-76.5 -54t-96.5 -71.5q-18 -10 -30.5 -6t-15.5 16t2 27.5t20 25.5q59 43 101 77t84 58.5t90 42 t122 31.5q135 25 244.5 2.5t185.5 -90t109.5 -177t15.5 -257.5q-14 -111 -63.5 -213t-120 -195.5t-157.5 -177.5t-179 -158.5t-182.5 -139t-165.5 -119.5q227 -2 451 4t450 8q20 0 28.5 -9.5t5 -20.5t-14.5 -22.5t-27 -13.5l-500 -8t-502 -10q-10 0 -12 14.5z" />
<glyph unicode="3" horiz-adv-x="1320" d="M6 254q-4 27 11.5 47.5t34 26.5t31.5 -4.5t1 -42.5q70 -86 169 -135.5t212 -61.5t227.5 10.5t214 79.5t173 148.5t102.5 214.5q18 80 -6.5 143t-76.5 109.5t-125 75t-151 36.5t-155.5 -3t-137.5 -46q-16 4 -22 14.5t-5 23.5t8 26.5t17 21.5q47 6 100.5 32.5t105.5 65.5 t97.5 86t75 95.5t41.5 92.5t-4 79q-20 39 -65 66.5t-102.5 42.5t-123 19.5t-131 -3t-124 -24.5t-101.5 -46q-4 -18 -18.5 -26.5t-28.5 -8.5t-25.5 10.5t-9.5 32.5q35 61 124 96t195.5 44.5t214 -9t182.5 -63.5t97.5 -119t-39.5 -174q-18 -29 -36.5 -54.5t-43 -53 t-57.5 -60.5t-80 -74q82 2 161 -19.5t144.5 -65.5t112.5 -109.5t65 -151.5q25 -106 -24 -211.5t-136 -194t-194.5 -147.5t-200.5 -74q-102 -16 -198 -13t-184.5 29.5t-166 82t-145.5 143.5z" />
<glyph unicode="4" horiz-adv-x="1083" d="M0.5 787.5q-4.5 17.5 0.5 38t15.5 40t22.5 27.5q27 82 62.5 162t69.5 160.5t62.5 163.5t42.5 169q2 16 14.5 28.5t25 16.5t22.5 -3t10 -29q-16 -94 -47 -184.5t-66.5 -179.5t-74.5 -177t-72 -178q68 6 153 12t177 12t182 11.5t168 11.5l-8 655q2 12 11 24.5t20.5 18.5 t22.5 3t17 -21q0 -133 2.5 -308.5t6.5 -365.5q74 6 115.5 11t37.5 9q41 -2 49.5 -25.5t-26.5 -45.5q4 0 -48.5 -4t-127.5 -11q2 -111 4 -220t3 -212.5t3 -197t2 -170.5q0 -16 -9 -29.5t-21.5 -20t-24 -1t-17.5 25.5l-10 819q-84 -6 -182.5 -14t-197.5 -16.5t-194.5 -15.5 t-172.5 -13q-18 6 -22.5 23.5z" />
<glyph unicode="5" horiz-adv-x="1069" d="M20 336q-4 16 3.5 30.5t18.5 22.5t24.5 5t21.5 -21q72 -162 157 -232.5t172 -76t170 46t148.5 133.5t107.5 183t49 199.5t-28 180.5t-123 124t-235.5 33.5t-368.5 -92.5q-14 -23 -37 -24h-6q-23 4 -27 20.5t5 32.5q0 145 -3 289t-3 287q0 4 2 6q-2 16 11 30.5t36 16.5 q35 2 97 8t136 14.5t153 18.5t143.5 18t107.5 14.5t49 6.5q20 2 28.5 -8.5t5 -24.5t-14.5 -27.5t-27 -15.5q-8 0 -78 -9t-168 -22.5t-209 -28t-201 -24.5q0 -125 2 -248t4 -248q242 82 404 83t257 -52t132 -149.5t26.5 -208t-59.5 -227t-123.5 -208t-170 -148.5t-197 -52 t-202.5 84t-190 260z" />
<glyph unicode="6" horiz-adv-x="1052" d="M8 416q10 125 42 262t78 275.5t90 261t76 218t38 146.5q2 16 15 28.5t27.5 16.5t24 -3t4.5 -30q-18 -82 -44.5 -174t-57.5 -186t-62.5 -186.5t-60.5 -174.5q82 61 176.5 82t184.5 7.5t169.5 -56.5t136 -107.5t80 -145.5t3.5 -169q-10 -78 -69.5 -164t-146.5 -157.5 t-187.5 -118.5t-188.5 -49q-137 -4 -211 52t-100.5 151.5t-16.5 220.5zM85 308q7 -77 43 -133t104.5 -85t183.5 -12q63 18 130.5 57t128 91.5t106.5 117t66.5 133t8.5 141t-70 142.5q-51 66 -136 99.5t-177 34.5t-180.5 -30t-145.5 -94q-16 -61 -35.5 -141t-26.5 -162 t0 -159z" />
<glyph unicode="7" horiz-adv-x="1116" d="M3 1488q3 11 12.5 22.5t21.5 15.5q2 0 48 1t118.5 5t166 8t189.5 9t189.5 10.5t166 8.5t118.5 5t48 0q14 0 17.5 -9.5t-1.5 -22.5t-13.5 -26.5t-14.5 -17.5q-63 -127 -141 -283.5t-158 -319.5t-156.5 -317.5t-135 -277.5t-94.5 -199.5t-36 -83.5q-6 -14 -20.5 -19 t-28.5 -2t-23.5 13t-5.5 29q4 12 42 91t98.5 202t137.5 275.5t156.5 312t158.5 313t143 278.5q2 0 -67 -4t-174.5 -11t-229 -15.5t-233 -15.5t-186.5 -10t-87 1q-18 2 -23.5 12.5t-2.5 21.5z" />
<glyph unicode="8" horiz-adv-x="966" d="M6 1223q-4 86 36 151.5t105.5 110.5t150.5 71.5t172 37t169 4t141 -24.5q18 -6 21.5 -20.5t-2.5 -27t-19.5 -21.5t-29.5 -5q-68 20 -130.5 26.5t-121 0.5t-110.5 -19.5t-101 -31.5q-35 -12 -73 -33t-70.5 -48.5t-51 -64.5t-12.5 -82q14 -74 62 -137t110.5 -118.5 t132.5 -104.5t127 -92q53 74 105.5 155.5t95.5 167.5t74.5 172t41.5 164q2 16 14.5 28.5t25 16.5t22.5 -3t10 -30q-14 -92 -47 -186t-79 -185t-101.5 -177.5t-110.5 -161.5q129 -92 184.5 -214t20.5 -276q-14 -68 -63.5 -122t-114 -90t-136 -48t-131 6.5t-99.5 70.5t-42 146 q0 41 20.5 91.5t50.5 99.5t60.5 94t51.5 76q23 35 48 69.5t54 73.5q-33 25 -79 56.5t-96 68.5t-100.5 80t-91.5 89t-66.5 95t-27.5 101zM256 182q12 -37 42 -58.5t66.5 -31.5t75.5 -10t70 8q109 29 156 107.5t41.5 173t-55.5 183.5t-136 138q-27 -35 -51.5 -69.5 t-46.5 -69.5q-20 -29 -53 -76t-62 -99t-44 -104.5t-3 -91.5z" />
<glyph unicode="9" horiz-adv-x="1024" d="M-3 1028q5 45 17 96q27 66 78 135.5t116.5 133t141.5 113.5t154 76t151.5 18.5t135.5 -56.5v-4v-6v6q-2 -16 -12.5 -28.5t-22 -16.5t-22.5 1t-15 26v6q-49 25 -127 6.5t-162 -64t-164 -112t-133 -139t-70.5 -146.5t23.5 -131q31 -43 78 -52t99 2t100.5 32.5t82.5 40.5 q94 51 185.5 118.5t148.5 159.5q0 39 4 87t12.5 93t23 80t38.5 49q37 12 45 -18q8 -33 5 -70t-7 -69q-4 -43 -16.5 -80t-28.5 -72l-6 -78q-14 -188 -23.5 -373.5t-17.5 -375.5v-53.5t-1 -107.5t-4 -118.5t-7 -89.5q-6 -35 -41 -41h-8q-25 4 -27 21.5t8 33.5q4 39 5 88.5 t2 96.5t1 89v68q10 184 19.5 363.5t19.5 361.5q-61 -68 -142 -123t-163 -104q-33 -20 -78 -41.5t-93 -35t-97 -16.5t-92 13q-51 23 -77 53.5t-34 69.5t-3 84z" />
<glyph unicode=":" horiz-adv-x="194" d="M33 106v9q6 37 37 47q2 0 14 1t14 1q31 0 34 -27.5t-11 -44.5q-6 -10 -25.5 -17t-32.5 -12h-2q-14 4 -19 17.5t-9 25.5zM33 672v8q6 37 37 47q2 0 14 1t14 1q31 0 34 -27.5t-11 -44.5q-6 -10 -25.5 -17t-32.5 -11h-2q-14 4 -19 17t-9 26zM100 154l2 -2v2h-2zM100 719 l2 -2v2h-2z" />
<glyph unicode=";" horiz-adv-x="225" d="M25 0q-10 29 9 61.5t48 38.5q12 0 17 -2t14 -10l2 -4q4 -20 0 -31q29 -10 39 -34.5t6 -56.5t-17.5 -66.5t-29.5 -61.5q-10 -10 -19.5 -14t-25.5 0l-2 2q-18 14 -16.5 34.5t16.5 30.5q10 23 19 53.5t-1 47.5l-33 -6l-15 6t-11 12zM33 672v8q6 37 37 47q2 0 14 1t14 1 q31 0 34 -27.5t-11 -44.5q-6 -10 -25.5 -17t-32.5 -11h-2q-14 4 -19 17t-9 26zM100 719l2 -2v2h-2z" />
<glyph unicode="&#x3c;" horiz-adv-x="688" d="M25 365q-2 18 2 30q0 12 12 29q31 31 77 73t98 87t103.5 88t92.5 77.5t67.5 57.5t28.5 27q49 37 57 18.5t-2 -61.5q-8 -27 -60 -73t-122 -101.5t-145.5 -114t-129.5 -111.5q0 -2 -2 0v2q20 -8 62.5 -31.5t95.5 -55.5t111.5 -66.5t111 -65.5t93 -55.5t59.5 -32.5 q6 -16 1 -31.5t-15.5 -25t-23.5 -9.5t-26 17q-10 6 -53 29.5t-102.5 57.5t-127 73t-125 72.5t-96 60t-42.5 35.5z" />
<glyph unicode="=" horiz-adv-x="716" d="M26 831.5q3 12.5 12 23.5t21 15q53 2 123 5.5t142.5 7.5t142.5 7t123 3h16l15 -6l6 -6q0 -2 2 -2q2 -6 2 -21q-4 -12 -13 -24l-2 -3q-12 -12 -26 -14h-15q-53 0 -121.5 -3t-141 -7t-141.5 -7t-120 -5q-18 2 -23 13t-2 23.5zM40 610.5q3 12.5 12 23.5t22 15q53 2 122.5 5 t142.5 7.5t142.5 7.5t122.5 3h17l14 -6l6 -7q0 -2 2 -2q2 -6 2 -20q-4 -12 -12 -25l-2 -2q-12 -12 -27 -14h-14q-53 0 -122 -3t-141.5 -7t-141 -7.5t-119.5 -5.5q-18 2 -23.5 13.5t-2.5 24z" />
<glyph unicode="&#x3e;" horiz-adv-x="720" d="M36 54.5q-5 15.5 1 31.5q18 8 59 32.5t93.5 55.5t110.5 65.5t111.5 66.5t95.5 55.5t62 31.5l-2 -2q-53 53 -129 111.5t-145.5 114t-121.5 101.5t-60 73q-10 43 -2 61.5t57 -18.5q2 -4 28.5 -27t67.5 -57.5t92.5 -77.5t103.5 -88t98 -87t77 -73q12 -16 12 -29q4 -12 2 -30 q-4 -8 -43 -35t-96 -60.5t-125 -72.5t-127 -73t-102 -57.5t-54 -29.5q-12 -16 -25.5 -16.5t-23.5 9t-15 25z" />
<glyph unicode="?" horiz-adv-x="835" d="M20 930q-4 106 31 198.5t96.5 158t143.5 99t172 25.5q51 -4 92 -11t75 -22.5t64.5 -44t61.5 -76.5q35 -47 29.5 -109.5t-34 -123.5t-69.5 -113.5t-78 -79.5q-25 -18 -53.5 -34.5t-57 -34t-54 -37.5t-44.5 -45q-18 -31 -25.5 -71t-7.5 -83t4.5 -85t8.5 -74q0 -2 1 -3.5 t1 -3.5q0 -16 -9.5 -29.5t-21.5 -19.5t-23.5 -1t-17.5 28q-6 41 -11 94t-3 106.5t15 102.5t44 84q45 49 104.5 88t114 80t94 94t46.5 133q4 53 -18.5 94t-61.5 69t-88.5 41t-94.5 9q-147 -10 -232 -96t-136 -252q4 -12 0 -26.5t-12.5 -24.5t-20.5 -12t-25 8zM307 68 q6 29 26.5 42t47.5 13q20 0 28.5 -10.5t5.5 -24.5t-14.5 -26.5t-27.5 -14.5q-2 0 -3 -1t-5 -1q-16 -18 -40 -15t-18 38z" />
<glyph unicode="@" horiz-adv-x="1185" d="M10 414.5q-2 115.5 28 230.5t89 210t146 160.5t198 86.5q92 16 183 -4.5t173 -66.5t147.5 -114.5t105.5 -151.5t48.5 -174t-26.5 -181q-18 -51 -65.5 -105.5t-106 -87.5t-117.5 -28.5t-104 69.5q-25 37 -45.5 79t-34.5 89q-33 -61 -74 -109q-29 -33 -72 -58.5t-84 -31.5 t-74.5 15.5t-43.5 87.5q-12 74 6 162t62 164.5t111.5 131t153.5 58.5q16 0 29 -12q4 -4 5 -8.5t5 -8.5q6 -16 1 -31.5t-15 -24.5t-23.5 -10t-25.5 15q-47 -8 -86 -39t-67.5 -72t-49 -90t-29.5 -94q-4 -16 -8 -39.5t-4 -48.5t7 -46.5t26 -31.5q33 -16 67.5 3.5t65.5 57 t55.5 89t40.5 98.5q0 70 27 131q16 18 34.5 23.5t28.5 -23.5q4 -37 -1 -75t-17 -74q4 -51 20.5 -101.5t41 -90.5t58.5 -63.5t71.5 -17.5t79.5 45t85 125q20 37 24.5 81t-1.5 85q-12 98 -72.5 179t-138.5 136q-98 72 -199.5 99.5t-195 8t-172 -86t-131.5 -182.5 q-53 -117 -66.5 -249t25.5 -257q68 -162 179 -254t240 -111.5t259.5 34.5t234.5 185q12 16 25.5 19.5t22.5 -2.5t11 -20.5t-6 -33.5q-23 -53 -68.5 -99t-108 -81t-135.5 -56.5t-149.5 -25.5t-150.5 12.5t-137 55.5l-166 131q-74 82 -111 190.5t-39 224z" />
<glyph unicode="A" d="M-49 35l-1 -1l24 46q28 53 76 147.5t111.5 218t132 258t137.5 269.5t124 249.5t94 199.5t49 120q14 34 41 34h2q29 -1 25 -38q12 -35 29.5 -81t43 -120.5t61.5 -182t86 -263.5t115.5 -367t153.5 -489q-2 -18 -11 -28.5t-20.5 -11.5t-22.5 6t-17 24q2 -10 -20.5 55 t-58.5 177t-83 256t-94 294q-129 -4 -254 -14.5t-256 -12.5q-63 -125 -124 -246.5t-114 -226t-97 -185.5t-71 -124q-17 -15 -34 -15q-9 1 -17 5q-15 8 -15 24q0 10 5 23zM455 854q117 4 227.5 15.5t224.5 17.5q-55 174 -98 322.5t-76 232.5q-41 -109 -116.5 -262.5 t-161.5 -325.5z" />
<glyph unicode="B" horiz-adv-x="1226" d="M29 1561q2 12 11 24t20.5 18.5t22.5 3.5t17 -22v-2q68 4 134 13q64 10 130 15q41 3 83 3q25 0 49 -1q66 -3 137 -22q33 -8 63.5 -17t55.5 -30q23 -16 45 -29.5t34 -35.5q32 -64 32 -124q-1 -63 -27 -120q-26 -55 -70.5 -102.5t-99.5 -83.5q49 -4 81.5 -11.5t63.5 -16.5 t64.5 -22.5t80.5 -31.5q76 -29 134 -89q58 -58 86 -132q20 -54 21 -112q0 -21 -3 -43q-10 -81 -72 -149q-135 -147 -316 -251.5t-384 -133.5q-16 -2 -48 -5t-71 -6t-83 -5q-22 -1 -44 -1t-43 1v12q0 -4 -4 -16q0 -4 -4 -8l-4 -9q-12 -12 -19 -14q-2 0 -2 -2q-6 -2 -14 -2 q-18 4 -25 29q3 16 3 42.5t-3 63.5q-2 190 -6 365.5t-10 347.5t-10 346.5t-6 364.5zM100 1507q4 -350 17 -695t16 -695q29 -4 58.5 -5t54.5 -1q94 2 192.5 22.5t191.5 55t180 82.5t161 108q79 67 117 137q32 61 33 120q0 8 -1 18q-6 68 -55 130t-141 109q-68 35 -146 55.5 t-153 26.5q-25 2 -51.5 3t-53.5 1q-53 -20 -108.5 -32.5t-110.5 -20.5q-16 2 -22.5 11t-4.5 20.5t8.5 22.5t16.5 19q2 0 3 1t3 1v3h2q49 25 103.5 37t109.5 14q70 29 129.5 70.5t106.5 107.5q38 54 38 108q0 13 -2 25q-10 66 -81 107q-76 43 -151 55q-64 10 -130 10h-22 q-76 -2 -153 -13.5t-155 -17.5z" />
<glyph unicode="C" horiz-adv-x="1159" d="M18 772q2 123 37 249t95.5 235.5t145.5 193.5q84 84 190 124q79 30 167 30q30 0 60 -4q121 -14 254 -99q2 -14 -4.5 -28.5t-16.5 -21.5t-22.5 -7t-22.5 16q-117 72 -228 72q-10 0 -20 -1q-121 -7 -224 -69.5t-181 -169t-115 -229.5q-35 -115 -41 -250q-1 -23 -1 -47 q-1 -111 23 -217q28 -129 97.5 -240.5t185.5 -177.5q53 -31 143 -53q75 -18 155 -17q17 1 33 1q97 4 185 43.5t138 134.5q8 18 21 26t24.5 6t18.5 -13q4 -6 4 -15q0 -8 -3 -17q-18 -74 -72.5 -121t-125 -74.5t-148.5 -37.5t-145 -10h-17q-146 0 -256 68q-116 72 -191 185 t-111 255q-32 128 -32 253v27zM967 1501v2l2 -6q-2 2 -2 4z" />
<glyph unicode="D" horiz-adv-x="1099" d="M29 600q0 170 2 408.5t6 560.5v4q-8 10 -1 30.5t21 30.5q58 14 123 14q38 0 78 -4q109 -14 217.5 -57t210.5 -112.5t182 -159.5t130.5 -197.5t56.5 -224.5q1 -31 1 -61q0 -188 -54 -326q-64 -160 -195 -263.5t-324.5 -158.5t-441.5 -76q-2 10 -5 40t-4 95.5t-2 176 t-1 280.5zM109 80q43 10 130 24.5t191.5 44t211 81t190 134t128.5 205.5q32 88 32 201q0 45 -5 94q-18 166 -107 303.5t-216 232.5q-126 95 -274 142q-114 36 -219 36q-31 0 -62 -3v-625v-421v-258v-133v-50v-8z" />
<glyph unicode="E" horiz-adv-x="927" d="M29 1552q2 14 13 26q12 12 24 18q6 3 12 3q5 -1 10 -3q10 -6 12 -23q180 4 378 9t378 7q20 0 28 -10q6 -7 7 -17q0 -4 -1 -8q-3 -14 -14.5 -26t-27.5 -15q-178 -2 -373.5 -7t-374.5 -9l2 -620q8 4 17 4q117 0 231.5 5t231.5 5q20 0 28 -10.5t5 -24.5t-14 -26.5t-28 -14.5 q-119 0 -235.5 -5t-235.5 -5l2 -737q98 0 191.5 5t185.5 11q91 6 183 9q30 1 62 1q62 0 126 -4q8 0 13 -10t5 -22.5t-6 -21.5t-18 -5q-76 -8 -179.5 -13.5t-211 -8.5t-207.5 -7t-170 -10q-14 4 -20.5 12t-14.5 16q-2 4 -4 18.5t-3 65t-2 148.5t-2 267t-2 421t-1 612z" />
<glyph unicode="F" horiz-adv-x="913" d="M29 1552q2 14 13 26.5t23.5 18t22.5 0t12 -23.5q180 4 379 16.5t377 14.5q20 0 28 -10q6 -8 7 -18q0 -4 -1 -8q-3 -14 -14.5 -26t-27.5 -14q-178 -2 -373.5 -14.5t-374.5 -16.5l2 -620q8 4 17 4q117 0 231.5 5t231.5 5q20 0 28 -10.5t5 -24.5t-14 -26.5t-28 -14.5 q-119 0 -235.5 -5t-235.5 -5l2 -778q0 -41 -17 -44h-6q-16 0 -38 13q-2 4 -4 20.5t-3 69.5t-2 153.5t-2 272.5t-2 426t-1 614z" />
<glyph unicode="G" horiz-adv-x="1269" d="M4 772q2 123 37 249t95.5 235.5t145.5 193.5t190 124q79 30 167 30q29 0 59 -4q121 -13 254 -99v2l2 -6h-2q0 -14 -6 -27.5t-16 -20.5t-21.5 -6t-21.5 17q-117 72 -228 72q-10 0 -20 -1q-121 -7 -224.5 -69.5t-181 -169t-114.5 -229.5q-38 -141 -38 -276v-7 q1 -137 36 -255.5t102.5 -214t163.5 -154.5q141 -88 279 -92h12q131 0 232 76q104 79 158 240q36 109 36 255q0 70 -8 149h-5q-92 -2 -181 -4t-181 -2q-18 4 -24.5 16.5t-1 26t17.5 23.5t28 10q51 0 103.5 2t111.5 3h41q42 0 89 -1q69 -2 159 -8q2 -12 2 -21q0 -12 -3 -19 q-5 -13 -17 -18.5t-29.5 -6.5t-38.5 -1q10 -84 10 -159q0 -111 -22 -203q-37 -152 -115 -249t-186 -141q-98 -40 -201 -40q-12 0 -23 1q-116 5 -229.5 59t-202 152.5t-141.5 241.5q-49 134 -49 301v25z" />
<glyph unicode="H" horiz-adv-x="1132" d="M20 1511q2 16 14.5 28.5t25 17t22.5 -3t10 -29.5l2 -684q14 -4 59.5 -3t111 4t146.5 7t164.5 9t164.5 8t147 3q-12 180 -19.5 343t-9.5 343q2 12 12 24q9 14 20 20q7 4 15 4q3 0 7 -2q12 -4 18 -21q4 -385 34.5 -762t59.5 -758q4 -12 4 -18q0 -4 -2 -6q-4 -14 -13 -24.5 t-21 -13.5q-4 -1 -8 -1q-7 0 -13 3q-10 5 -15 24q-16 188 -33.5 383.5t-31.5 384.5q-2 -2 -2 1t-2 3q-98 -4 -225 -11.5t-246 -14.5t-208 -11q-44 -2 -73 -2t-41 2l2 -713q0 -41 -17.5 -44t-43.5 13q-2 4 -4 16.5t-3 58.5t-2 139.5t-2 258t-2.5 414.5t-1.5 610z" />
<glyph unicode="I" horiz-adv-x="321" d="M74 1511q2 16 14 28.5t24 16.5q5 2 10 2q7 0 13 -4q10 -8 10 -30l5 -1479q0 -41 -18 -44h-5q-16 0 -39 13q-2 4 -4 16.5t-3 58.5t-2 139.5t-2 258t-2 414.5t-1 610z" />
<glyph unicode="J" horiz-adv-x="964" d="M20 244q-1 6 -1 11q0 10 5 21q7 15 19 22t25.5 5t19.5 -22q20 -57 65.5 -100.5t103.5 -70t123 -34.5q24 -3 48 -3q39 0 76 8q59 13 106 50t72 100q12 35 21.5 95.5t14.5 137.5t7 163q1 43 1 86t-1 87q-2 87 -6 169t-10 147q-6 74 -12.5 145.5t-16.5 143.5q-4 39 -10 88 q-2 9 -2 17q0 38 24 65q11 11 19 11q5 0 9 -5q11 -12 16 -36.5t8.5 -53.5t5.5 -43q0 -8 4 -46t9 -87t10 -99.5t5 -80.5q2 -74 10.5 -193t9.5 -251v-28q0 -117 -8 -232q-8 -128 -38 -218q-29 -84 -92.5 -133t-141.5 -68q-53 -14 -108 -14q-25 0 -50 3q-81 9 -143 40 q-18 6 -51 29.5t-63.5 54.5t-55 62.5t-27.5 56.5z" />
<glyph unicode="K" horiz-adv-x="1077" d="M16 1511q2 16 14.5 28.5t25 17t22.5 -3t10 -29.5l2 -658q104 86 218 180.5t224.5 186.5t211 179t178.5 161q12 16 26 19q4 1 8 1q8 0 14 -4q9 -6 11 -20.5t-6 -32.5q-4 -10 -36 -42t-83 -78t-114.5 -102.5t-130 -113.5t-130 -111.5t-114.5 -97.5q4 -8 4 -20l4 -8 q2 -4 3 -7.5t3 -5.5q8 -16 53 -75.5t110.5 -143.5t141.5 -183t146.5 -191.5t127 -169t82.5 -115.5q3 -6 3 -13t-4 -15q-7 -14 -19 -23t-25.5 -9t-19.5 17q-16 31 -65.5 99.5t-117 157.5t-143.5 189t-145.5 190.5t-124.5 162t-80 106.5q-2 2 -2 6q-49 -37 -98 -73t-97 -72 q-10 -6 -14 -7l2 -743q0 -41 -18 -44h-5q-16 0 -38 13q-2 4 -4 16.5t-3 58.5t-2.5 139.5t-2.5 258t-2 414.5t-1 610z" />
<glyph unicode="L" horiz-adv-x="913" d="M29 1552q27 25 43 29h3q14 0 20 -35q7 -39 9 -134t2 -268q0 -172 -2 -436q-1 -132 -1 -292t1 -348q98 0 191.5 5t185.5 11q91 6 183 9q30 1 62 1q62 0 126 -4q8 0 13 -10t5 -22.5t-6 -21.5t-18 -5q-76 -8 -179.5 -13.5t-211 -8.5t-207.5 -7t-170 -10q-14 4 -20.5 12 t-14.5 16q-2 4 -4 18.5t-3 65t-2 148.5t-2 267t-2 421t-1 612z" />
<glyph unicode="M" horiz-adv-x="1404" d="M12 14q-1 1 -1 6q0 14 4 60q5 64 13.5 169t20.5 238.5t25.5 271.5t27 271t25.5 239.5t21.5 173t13.5 73.5q4 27 29.5 41t35.5 -5q8 -4 15 -8q61 -86 116.5 -177t108.5 -181t109.5 -180.5t121.5 -174.5q135 154 234.5 330t191.5 359q6 16 14.5 35.5t18.5 29.5q15 12 28 12 q7 0 13 -4q20 -4 21 -45l159 -1521q0 -23 -10 -30q-6 -4 -14 -4q-4 0 -8 1q-12 4 -24.5 16.5t-14.5 28.5q-6 6 -16.5 89t-25 211t-28.5 285.5t-28.5 312.5t-26 290t-15.5 221q-27 -61 -69.5 -141t-94 -162t-104.5 -161t-98 -138.5t-76 -94t-37 -28.5q-25 25 -69 86t-96 139 t-105 163t-97.5 157.5t-73 122t-32.5 57.5l-141 -1403q0 -41 -17.5 -44t-44.5 13z" />
<glyph unicode="N" horiz-adv-x="1110" d="M11 60v18q-1 64 5 216q6 175 17.5 483t32.5 782q4 14 15 25t23.5 15.5t22.5 -2t10 -26.5q0 -4 2 -4l774 -1442q-2 125 -7 475.5t-7 958.5q2 16 15 28q12 13 24 17q4 2 9 1q7 -1 13 -5q10 -8 11 -29l10 -1512l-6 -8q9 -29 -5 -37q-10 -5 -25 -5q-8 0 -17 1 q-4 2 -21.5 27.5t-55.5 87t-97.5 165t-147.5 263.5t-206.5 382t-274.5 519l-45 -1399q-4 -41 -21.5 -44t-42.5 16q-4 -25 -5 33z" />
<glyph unicode="O" horiz-adv-x="1513" d="M2 770q-2 27 -2 55q0 146 45 299q10 37 35.5 81t57.5 87t67.5 81t66.5 61q216 154 392 192q80 17 151 17q86 0 160 -25q135 -45 229 -157.5t146.5 -260t61.5 -314.5q2 -35 2 -70q0 -130 -26 -252q-34 -156 -113 -283t-202 -195q-163 -88 -317 -96q-20 -1 -39 -1 q-132 0 -247 47q-132 54 -234.5 163.5t-163 254t-70.5 316.5zM81 904q-3 -38 -4 -76q1 -117 31 -234q40 -156 129 -276t223 -190q109 -56 243 -57q31 0 63 3q176 6 298 95t190 224t86 299q6 59 7 117q0 103 -20 203q-31 156 -108.5 285.5t-198.5 198.5q-105 60 -242 60 q-21 0 -42 -2q-163 -10 -365 -137q-135 -84 -206 -221.5t-84 -291.5z" />
<glyph unicode="P" horiz-adv-x="1130" d="M12 1473q2 12 11.5 24t20.5 18.5t22.5 3.5t17.5 -22v-16q106 67 236 103q111 31 218 31q18 0 36 -1q124 -6 229.5 -62.5t165.5 -175.5q82 -143 94 -276q3 -30 3 -58q0 -100 -33 -187q-42 -112 -130 -199t-208 -136t-264 -56q-19 -1 -39 -1q-126 0 -257 39q7 -119 11 -238 q1 -40 1 -79q0 -80 -4 -160q-4 -12 -13 -23q-8 -10 -20 -14q-5 -2 -10 -2q-6 0 -12 3q-10 5 -16 21v23q4 60 4 123v42q-2 85 -8.5 183t-14.5 215t-16 258q-6 82 -10 155.5t-7.5 146.5t-5.5 150t-2 167zM84 1407q2 -76 4 -139.5t4 -125t6 -124.5t8 -139q4 -74 10.5 -148 t12.5 -147q133 -46 258 -46q25 0 49 2q148 11 263.5 69.5t192.5 154.5q76 96 98 212q7 38 8 77q0 79 -30 161q-44 122 -169 238q-55 49 -120 70.5t-133 22.5h-8l-126 -14q-68 -15 -128.5 -36.5t-112.5 -45.5t-87 -42z" />
<glyph unicode="Q" horiz-adv-x="1511" d="M2 770q-2 27 -2 55q0 146 45 299q10 37 35.5 81t57.5 87t67.5 81t66.5 61q215 154 392 192q80 17 151 17q86 0 160 -25q135 -45 229 -157.5t146.5 -260t61.5 -314.5q2 -35 2 -70q0 -130 -26 -252q-34 -156 -114 -283q-49 -80 -115 -136q61 -80 120.5 -160.5t119.5 -160.5 l2 -2q4 -6 8 -11.5t8 -11.5h-2q2 -7 2 -14q0 -6 -1 -11q-3 -14 -11 -24t-19 -13q-4 -1 -7 -1q-9 0 -19 6l-2 2q0 2 -2 2q-4 8 -8 12t-5 6q-61 86 -122.5 169t-124.5 165q-12 -6 -23 -12q-162 -88 -317 -96q-19 -1 -39 -1q-132 0 -247 47q-132 54 -234.5 163.5t-163 254 t-70.5 316.5zM81 904q-3 -38 -3 -76q0 -117 30 -234q39 -156 128.5 -276.5t223.5 -190.5q108 -56 240 -56q32 0 66 3q164 6 283 84q-41 49 -82 97t-84 95q-10 14 -7 29.5t12 26t23.5 12.5t28.5 -10q45 -49 88 -98.5t84 -102.5q88 78 141 186q70 135 87 299q7 59 7 117 q0 103 -20 203q-31 155 -108.5 285t-198.5 199q-105 60 -242 60q-20 0 -42 -2q-163 -10 -365 -137q-135 -84 -206 -221t-84 -292z" />
<glyph unicode="R" horiz-adv-x="931" d="M0 1499q0 82 2 88q2 12 12.5 24.5t22.5 18.5t24.5 3t18.5 -21v-6q80 47 169 59q38 5 76 5q50 0 100 -9q87 -16 167 -60.5t140.5 -109t97 -148t36.5 -180.5q0 -143 -45 -255.5t-128 -195.5t-196.5 -139.5t-250.5 -87.5q61 -31 140 -73.5t162 -90t161.5 -92.5t138.5 -77 q16 4 31 -9l12 -14q2 -2 4 -2l-2 -2l4 -2q4 -11 4 -21q0 -14 -9 -26q-15 -20 -44 -17q-80 43 -178.5 102.5t-199.5 119t-201.5 111.5t-186.5 81q0 -6 1 -36.5t2 -74t2.5 -93.5t3 -96t3.5 -82t6 -50q4 -16 -6 -29.5t-24 -19.5q-7 -3 -14 -3q-6 0 -13 2q-14 5 -20 25 q-2 131 -5.5 297t-6.5 338t-5 338t-4 297t-2 213zM80 1532l2 -979q26 -2 53 -2q69 1 139 15q98 20 187.5 64t162 110.5t117.5 149.5t55 179q2 21 3 43q0 77 -29 160q-41 119 -120 192.5t-176 103.5q-73 23 -150 23q-26 0 -52 -2q-104 -10 -192 -57z" />
<glyph unicode="S" horiz-adv-x="1353" d="M7 907q-5 30 -5 65q0 53 12 118q18 100 93 192t182.5 168t238.5 129q132 53 266 73q77 12 149 12q55 0 109 -6q124 -16 220 -77q20 -12 31.5 -34t25.5 -40q2 -7 2 -15q0 -6 -1 -12q-3 -16 -11 -26t-20.5 -12t-26.5 8q-10 16 -19.5 33.5t-25.5 27.5q-79 45 -191 57 q-43 4 -87 4q-71 0 -146 -12q-121 -18 -242 -61t-221 -106.5t-169 -142.5t-87 -167q-13 -59 -12 -109q0 -89 40 -151q62 -96 230 -137q43 -10 102.5 -15t122 -9.5t120.5 -7.5t101 -9q53 -4 104.5 -12t102.5 -19q72 -12 131.5 -57t92 -108.5t32.5 -137t-49 -139.5 q-59 -76 -139 -112q-80 -38 -170 -50q-68 -9 -138 -9q-21 0 -45 1q-94 4 -178 12q-78 8 -161 41q-41 14 -62.5 26.5t-33 26t-17.5 34t-12 55.5q2 12 11 24t20.5 18.5t22.5 3.5t17 -22l9 -47q130 -74 282 -94q64 -8 126 -8q87 0 173 16q45 8 95.5 24.5t90.5 45.5q39 28 63 70 q17 30 17 70q0 15 -2 32q-12 86 -65 135t-130 73.5t-169 30.5t-184.5 9.5t-174 8.5t-137.5 25q-84 31 -147.5 70t-103.5 94t-53 131z" />
<glyph unicode="T" horiz-adv-x="1341" d="M3 1444q3 12 12.5 23.5t21.5 15.5q160 6 316.5 28.5t312 51t311.5 57.5t313 47h4h9q16 -7 20 -19q2 -6 2 -11q0 -7 -3 -13q-5 -12 -15.5 -22.5t-24.5 -12.5q-137 -16 -271 -40.5t-270 -49.5q1 -159 11 -521q8 -299 9 -476q0 -37 -1 -69q-1 -61 -1 -126q0 -130 3 -274 q-4 -12 -13.5 -22.5t-20.5 -14.5q-5 -2 -10 -2q-6 0 -12 3q-10 5 -16 21v23q-4 139 -4 264q0 62 1 120q1 44 1 99q0 166 -7 436q-9 360 -11 527q-160 -29 -318.5 -51.5t-322.5 -28.5q-17 1 -23 13q-4 7 -4 16q0 4 1 8z" />
<glyph unicode="U" horiz-adv-x="1263" d="M14 1294q4 166 13 342q4 16 16 28q13 13 25 16q3 1 6 1q8 0 15 -6q9 -8 9 -30q-8 -152 -8 -325t11.5 -345t33 -332t58.5 -287q14 -49 40.5 -96t64.5 -85t86 -63.5t105 -29.5q19 -2 39 -2q54 0 113 12q80 16 152.5 53t132 91.5t92.5 121.5q56 120 74 266q18 139 17 286v16 q-1 156 -15.5 311.5t-26.5 292.5q2 12 12.5 24.5t20.5 17.5t21.5 1t17.5 -23q14 -164 31 -318q16 -154 18 -304v-25q0 -137 -20 -273q-22 -148 -85 -296q-35 -82 -103.5 -146.5t-154.5 -108.5q-86 -45 -179 -67q-79 -19 -150 -19q-13 0 -25 1q-59 2 -114.5 32.5t-101.5 77 t-80 100.5t-48 105q-47 172 -73 334q-24 161 -34 323q-7 118 -7 239q0 44 1 89z" />
<glyph unicode="V" horiz-adv-x="1331" d="M8 1513q0 18 8.5 28.5t19.5 12.5t23.5 -4t18.5 -22q-2 10 24.5 -53.5t69.5 -173t100 -250t207 -535.5q106 -291 144 -371q35 111 99 268.5t145 349t133.5 317.5t98.5 233.5t85 191.5t61 129q17 16 35 16q8 0 16 -4q17 -7 17 -25q0 -8 -4 -19l1 1q0 -1 -20 -49 q-24 -56 -66 -152.5t-97.5 -224.5t-115 -266.5t-118.5 -277.5t-106.5 -258t-81 -206t-39.5 -122q-12 -37 -41 -38h-1q-28 0 -26 38q-16 33 -36.5 78t-50.5 117.5t-73 177t-104.5 257t-140 358.5t-185.5 478z" />
<glyph unicode="W" horiz-adv-x="2076" d="M8 1513q0 18 8.5 28.5t19.5 12.5t23.5 -4t18.5 -22v1q2 0 51 -118l494 -1266q35 111 99 268.5t144 348.5q47 113 86 201q0 6 13.5 13t30 8t30.5 -6t16 -28q59 -152 168 -434l144 -371q522 1276 561 1360t61 129q17 16 35 16q7 0 15 -4q17 -7 18 -25q0 -8 -4 -19 q-2 -4 -21 -48q-23 -55 -64.5 -152t-263 -621.5t-255 -611.5t-39.5 -122q-12 -37 -41 -38h-1q-28 0 -26 38q-16 33 -36.5 78t-50.5 117.5t-73 177t-104 256.5q-35 86 -74 186q-49 -115 -98 -229q-59 -139 -106.5 -258t-81 -206t-39.5 -122q-12 -37 -41 -38h-1q-28 0 -26 38 q-16 33 -36.5 78t-50.5 117.5t-73 177t-104.5 257t-140 358.5t-185.5 478z" />
<glyph unicode="X" horiz-adv-x="1189" d="M6 80q2 0 31 43q35 49 94 137t136 204t161 241q66 98 133 200q-2 6 -6 13q-80 129 -188.5 290.5t-159.5 240.5t-78 103q-8 18 -8 34t7 24t20.5 8t27.5 -16q51 -55 170 -223.5t209 -309.5q29 -43 57 -88q76 119 168 268q100 166 150.5 246t62.5 115q35 26 48 26h3 q12 -4 16.5 -16t-3.5 -31q-29 -70 -131.5 -249t-192.5 -322q-37 -55 -74 -113q41 -66 84 -133q96 -156 179.5 -298t147 -258t93.5 -173q1 -6 1 -11q0 -28 -18 -36q-5 -2 -11 -2q-16 0 -33 22q4 -6 -25.5 45.5t-85 142.5t-128 208.5t-150.5 246.5q-51 84 -103 168 q-33 -51 -67 -104q-100 -152 -194.5 -287t-172.5 -241.5t-119 -157.5q-31 -18 -49 -4q-10 7 -10 20q0 11 8 27z" />
<glyph unicode="Y" horiz-adv-x="1249" d="M-2 1573q2 12 12 24.5t22.5 18.5t25 3t18.5 -22q133 -219 249.5 -435t249.5 -435q43 63 112 172t151 238t167.5 265t159.5 251q12 16 29 19q5 1 10 1q10 0 18 -4q13 -6 17 -21q1 -4 1 -10q0 -10 -5 -22q-53 -84 -116.5 -183.5t-129 -199.5t-128 -195.5t-114 -175.5 t-88 -136t-49.5 -77q2 -154 5 -304t6 -306q0 -16 -10.5 -28.5t-24.5 -15.5q-4 -1 -8 -1q-9 0 -17 4q-12 6 -18 27q-2 82 -2 157.5v150.5t-2 151.5t-9 160.5q-33 70 -97 181.5t-140 240.5t-155 261t-140 245z" />
<glyph unicode="Z" horiz-adv-x="1073" d="M16 35q2 18 482.5 748t484.5 730q-4 6 -397 6q-33 -1 -68 -1h-53q-409 0 -422 8q-19 4 -25 16q-4 6 -3 13t3 13q6 14 17.5 24t27.5 10q954 -8 973 -21q10 -8 16.5 -23.5t6.5 -32t-5 -32.5t-931 -1415q706 34 807 34q15 0 16 -1q20 0 28.5 -12.5t5.5 -29t-14.5 -30.5 t-27.5 -16q-665 -25 -824 -25q-40 0 -48 2q-36 8 -50 35z" />
<glyph unicode="[" horiz-adv-x="266" d="M50 930q1 312 3 758q0 45 25.5 61t66.5 16t90.5 -8t96.5 -10q18 6 28.5 1t13.5 -16.5t-1 -24.5t-17 -24q-6 -2 -41.5 1.5t-76.5 6.5t-78 5t-43 -2l12 -1823v-2q43 0 86 -2l86 -4q14 0 43 -1t27 -1q4 0 6 -1t4 -1q12 -6 16 -17v-16q0 -2 -2 -4q-2 -10 -12 -21 q-2 -6 -12 -10q-4 -4 -7.5 -4t-7.5 -2q-72 0 -140.5 4t-139.5 4q-4 4 -7 23.5t-7.5 81t-6.5 182.5t-4 329.5t-1 520.5z" />
<glyph unicode="\" horiz-adv-x="851" d="M-27 1612q14 20 21.5 31.5t19 13.5t24.5 -6.5t21 -26.5q10 -35 49 -120t357.5 -728t346.5 -696t24 -45q14 -35 -6.5 -47.5t-55.5 10.5q-27 55 -393.5 797.5t-407.5 816.5z" />
<glyph unicode="]" horiz-adv-x="315" d="M-121 -158q4 10 17 17q2 0 4 1t6 1q-2 0 6 0t20.5 1t24.5 1h18l86 4t86 2v2l13 1823q-6 4 -43 2t-78 -5t-77 -6.5t-42 -1.5q-12 10 -16 23.5t-1 25t13 16.5t29 -1q47 2 96 10t90 8t66.5 -16t25.5 -61q2 -446 3 -758t-1 -520.5t-4 -329.5t-6 -182.5t-7 -81t-7 -23.5 q-72 0 -140.5 -4t-140.5 -4q-4 2 -7 2t-7 4q-10 4 -12 10q-10 10 -13 21q-2 2 -2 4v16z" />
<glyph unicode="^" horiz-adv-x="583" d="M15 1758q-7 17 3 40q25 37 60 81t68.5 84t58 68.5t28.5 32.5q23 33 49.5 31t41.5 -31q2 0 29.5 -31.5t63.5 -72.5t71.5 -82t54.5 -59q10 -27 -5.5 -44.5t-43.5 5.5q-29 31 -63 65.5t-63.5 66.5t-52 56.5t-30.5 32.5q-4 0 -19.5 -17.5t-39 -45t-50 -60.5t-51.5 -61.5 t-45.5 -48t-28.5 -21.5q-29 -6 -36 11z" />
<glyph unicode="_" horiz-adv-x="843" d="M7 39q3 12 12.5 23.5t21.5 15.5q53 2 149.5 2h201t201.5 1t150 1h17l14 -6l6 -6q0 -2 2 -2q2 -6 2 -21q-4 -12 -12 -24l-2 -3q-12 -12 -27 -14h-14q-53 0 -148.5 -1t-200 -1h-200.5t-147 -2q-18 2 -23.5 13.5t-2.5 23.5z" />
<glyph unicode="`" horiz-adv-x="397" d="M-2.5 1882q14.5 27 43.5 27q4 0 49 -22.5t99.5 -49.5t99.5 -50.5t47 -25.5q18 -6 21 -20.5t-3 -26.5t-19 -21.5t-30 -4.5q-10 6 -54 29.5t-95.5 50t-94.5 47t-51 20.5q-27 20 -12.5 47z" />
<glyph unicode="a" horiz-adv-x="659" d="M-6 289v19q0 35 5 80q7 58 22.5 122.5t40 128t57.5 116t76 89.5t96 45q24 4 44 3q25 0 43 -5q32 -10 53.5 -29.5t38.5 -43t46 -40.5q12 23 34.5 30t33.5 -22q4 -78 7 -164t6 -175t5 -176t6 -165q6 -10 6 -24q0 -12 -1 -24.5t-1 -24.5q-8 -27 -32 -38q-7 -3 -13 -3 q-15 0 -24 20h-2v4v4l-13 291q-10 -31 -24.5 -60.5t-32.5 -58.5q-16 -23 -47 -56.5t-69 -65t-77.5 -54t-72.5 -22.5q-61 0 -102.5 26.5t-65 69.5t-32.5 96.5t-11 106.5zM64 284q4 -58 20 -110q8 -18 19.5 -38.5t27.5 -37.5q15 -16 37 -26q12 -5 26 -5q10 0 21 3 q84 23 139.5 77t89 125.5t48 151.5t14.5 154q0 12 -2 45.5t-2 70.5q-25 10 -44.5 30.5t-39 40t-42 35t-50.5 17.5h-7q-33 -1 -62 -19q-32 -20 -58.5 -50.5t-45 -65.5t-30.5 -61q-20 -49 -35 -105q-16 -58 -22 -116q-4 -35 -4 -69q0 -23 2 -47z" />
<glyph unicode="b" horiz-adv-x="770" d="M12 1546q2 16 13.5 28.5t23.5 17.5q5 2 10 2q7 0 13 -4q10 -7 12 -29q7 -215 7 -430v-53v-97q0 -193 3 -387q23 82 70 160q6 12 20.5 23t29.5 22.5t27.5 18.5t16.5 9q54 36 108 36h2q56 -1 106 -27.5t93 -73.5t75 -105.5t49.5 -123t17.5 -123.5q0 -88 -34 -164t-89 -130 q-54 -54 -122 -78q-42 -15 -86 -15q-26 0 -52 6q-23 4 -54.5 10t-61.5 17.5t-55.5 28.5t-35.5 46l-10 31q-2 -20 -4.5 -39t-6.5 -37v-21.5t-1 -4.5t-2 -4t-3 -19q-6 -27 -30 -39q-7 -3 -14 -3q-15 0 -25 21v4v19.5t0 2.5t2 1t4 18q2 73 2 144q0 54 -1 107q-3 124 -5 253 q-2 248 -2.5 491.5t-10.5 489.5zM117 297q20 10 33 -21q8 -23 13 -48t17 -46q31 -46 77 -66q42 -18 89 -18h10q52 2 103 24.5t92 60.5q41 37 65 89q22 47 21 103v10q0 37 -17.5 92t-47 112.5t-69.5 105.5t-86 73q-33 18 -70 18q-13 0 -27 -2q-52 -10 -105 -69 q-33 -37 -51.5 -85t-27.5 -103.5t-13 -115t-6 -114.5z" />
<glyph unicode="c" horiz-adv-x="733" d="M4 424q0 106 26.5 198.5t70.5 161.5q45 68 101 107q54 37 112 37h6q62 -2 124 -50.5t115 -150.5q0 -16 -9 -29.5t-21.5 -19.5t-23.5 -1t-18 25q-81 106 -149 130q-29 10 -55 10q-35 0 -65 -18q-52 -32 -86 -109.5t-44 -169.5q-4 -40 -4 -80q0 -53 7 -107 q13 -94 56 -163.5t116 -101.5q35 -15 78 -15q47 0 103 18q63 20 117.5 61.5t108.5 78.5q18 6 28.5 0.5t13.5 -16.5q1 -5 1 -10q0 -6 -2 -14q-4 -14 -17 -24q-92 -66 -152.5 -105.5t-104.5 -58.5q-45 -20 -79 -22h-17q-27 0 -56 4q-70 12 -122 65.5t-88 121t-53.5 136 t-17.5 111.5z" />
<glyph unicode="d" horiz-adv-x="774" d="M12 425q6 93 33 177t72 147.5t106 90.5q50 30 92 29q5 1 9 1q46 -4 83 -26.5t72 -53t70 -53.5q4 53 6 103.5t4 101.5q-6 135 -6 266v267v69q0 6 4 15q2 6 10 14l8 8q12 8 21 8h8q2 0 10 -4q4 0 4 -6l3 -2q2 -2 2 -5t2 -7v-49q0 -76 -1 -150v-49q0 -49 1 -98v-46 q0 -103 7 -215q9 -136 26.5 -276.5t38 -279t38.5 -265.5q20 -4 21 -35v-29.5t-1 -14.5t-2 -11t-3 -20q0 -2 2 -4h-2v-7q-4 -14 -13.5 -24t-19.5 -14q-5 -2 -10 -2t-11 2q-10 4 -16 20v6q-25 141 -39 282.5t-45 280.5l-12 -47q-6 -23 -20.5 -77t-37 -119.5t-55.5 -133 t-74 -117.5t-93 -73q-24 -11 -50 -11q-31 0 -64 15q-68 29 -108 94q-40 66 -58 150q-13 63 -14 130q0 23 2 47zM92 385q4 -66 15.5 -125t27.5 -98q19 -54 61 -72q26 -11 54 -12q15 0 31 4q43 10 83 43t58 82q47 117 74.5 229.5t44.5 225.5q-10 -4 -19 0q-27 14 -53.5 36.5 t-56 44t-61.5 35.5q-21 9 -43 8q-11 0 -23 -2q-61 -10 -100.5 -48t-61 -94t-28.5 -124q-4 -43 -5 -85z" />
<glyph unicode="e" horiz-adv-x="661" d="M-2 453q-3 6 -3 12.5t3 13.5q0 55 7 108.5t24.5 102.5t48.5 89t78 67q41 24 90 24h3q47 0 94 -16q48 -16 90 -47q41 -31 65 -69q25 -41 25 -86q0 -42 -31 -83q-33 -43 -86.5 -66.5t-114 -35.5t-120.5 -16.5t-110 -8.5v-16q-1 -80 17 -157q20 -85 65 -148q39 -55 103 -65 q22 -4 44 -4l86 14q64 20 118.5 62t76.5 89q10 14 22.5 18.5t23 1t14.5 -14.5q2 -6 2 -13t-2 -16q-39 -78 -103.5 -132.5t-140.5 -76.5q-42 -12 -85 -11q-36 -1 -70 7q-78 18 -144 81q-31 31 -48 80t-26.5 104.5t-11.5 111t-4 96.5zM63 518q59 6 135 9t134 20 q31 8 54.5 28.5t49.5 36.5q2 16 8 32q3 8 2 16q0 8 -2 16q-16 55 -64 83.5t-104 30.5h-5q-53 0 -101 -26q-50 -27 -70 -82q-27 -74 -37 -164z" />
<glyph unicode="f" horiz-adv-x="612" d="M-16 743q62 75 95 75q4 0 7 -1q19 -5 37 -5q14 0 27 3q-3 69 -3 136q0 33 1 65q2 98 12 203q8 86 37.5 180t93.5 157q45 47 94 47q6 0 13 -1q55 -7 101 -49t74.5 -105.5t28.5 -122.5v-6l-4 -12q-4 -12 -8 -17l-6 -8q-10 -10 -23 -10h-6q-8 0 -18 10q0 2 -2 4l-3 6 q-2 2 -2 8v7q0 8 -6 34.5t-17 58.5t-27.5 62.5t-38 50t-49.5 20.5h-1q-27 0 -57 -28q-35 -31 -56.5 -76t-34 -95t-17.5 -105t-7 -109q-4 -76 -4 -149.5t4 -149.5q45 4 82 12.5t51 20.5t26.5 12t18.5 -8t7.5 -22.5t-7.5 -28.5q-25 -23 -71.5 -38t-102.5 -26q0 -205 10.5 -350 t16.5 -239q4 -56 4 -94q0 -25 -2 -43q-4 -44 -35 -46q-2 -2 -5 -2q-9 0 -16 33q-8 41 -14 110.5t-10 159.5t-7 178.5t-6 165t-5 121.5q-42 -3 -79 -3h-18q-44 1 -73 9z" />
<glyph unicode="g" horiz-adv-x="675" d="M-35 -260q6 37 37 47l57 12q20 0 27.5 -9t6.5 -21.5t-9 -24.5t-21 -18l-14 -2q37 -35 96.5 -56.5t124.5 -31.5q42 -6 82 -6q24 0 46 2q63 6 110 26q55 25 68 96q9 46 9 99q0 29 -3 60q-7 87 -23 173t-20 137q-25 -53 -50 -86q-12 -18 -40.5 -44.5t-64.5 -50.5t-73 -41 t-65 -17q-23 0 -45.5 9t-44.5 15q-18 6 -40 34t-40.5 61.5t-31.5 67.5t-17 54q-16 70 -21 131q-1 25 -1 53q0 37 3 76q4 47 19.5 91.5t31.5 87.5q29 76 82.5 124t118.5 67q40 12 84 12q25 0 51 -4q71 -11 137 -54q12 -10 13.5 -24.5t-6.5 -24.5q31 4 60.5 -14.5t35.5 -57.5 q5 -27 5 -59q0 -39 -7 -86q-12 -86 -39 -172l12 -97q16 -139 34 -279q11 -89 11 -183q0 -54 -4 -109q-4 -47 -39 -74.5t-88 -43t-116 -19.5q-32 -2 -63.5 -2t-62.5 2q-61 4 -110 12t-74 19q-25 10 -49.5 22t-42.5 29.5t-30 39.5q-8 17 -8 37q0 8 1 15zM85 390 q3 -93 31.5 -177t82.5 -133q42 -18 77 -18q26 0 48 10q53 22 92 71.5t63.5 114t40.5 117.5l-12 92q-4 29 -12.5 58.5t-15.5 60t-9 60.5t6 59q6 20 19 32q-2 0 -2 1t-2 1q-86 49 -155 49q-14 0 -27 -2q-79 -12 -130 -68t-74 -146q-21 -79 -21 -161v-21zM542 660q3 -11 6 -21 t3 -12l14 -64l4 60q1 5 1 9q0 12 -4 26q-5 18 -21 26q-2 0 -2 1t-2 1q-3 0 -3 -5q0 -7 4 -21z" />
<glyph unicode="h" horiz-adv-x="757" d="M-7 1412v19q0 37 3 66q4 37 12 51q12 16 26 20q6 1 10 1q6 0 12 -3q10 -5 13 -18.5t-6 -31.5q4 -74 7.5 -134.5t6.5 -119t6 -119t7 -133.5l21 -336q71 108 141 150q58 35 112 35q10 0 20 -1q62 -8 116.5 -57t97.5 -123t72.5 -163t43.5 -177q10 -68 10 -130q0 -19 -1 -37 q-4 -79 -29 -130q-8 -17 -22 -23q-8 -3 -14 -4q-5 0 -9 2q-10 4 -15 16.5t1 33.5q13 41 13 113v28q-3 92 -25.5 194.5t-62.5 193.5t-97 138q-42 34 -93 34q-19 -1 -39 -5q-75 -18 -165 -131q-39 -49 -48 -133q-6 -58 -6 -117q0 -26 1 -53q4 -86 13 -160q6 -51 6 -80 q0 -13 -1 -22v-15h-6q-12 -23 -33.5 -27t-32.5 27v2q-4 258 -20 518t-29 516q0 8 -3 42t-6 81t-5 100.5t-3 101.5z" />
<glyph unicode="i" horiz-adv-x="311" d="M23 788q2 12 11 24.5t20.5 19t22.5 3t17 -21.5q8 -186 28.5 -370.5t55.5 -366.5q10 -7 10 -23q0 -7 -2 -16q0 -2 -4 -10q-12 -25 -34 -28h-4q-20 0 -29 28q-41 186 -61.5 378.5t-30.5 382.5zM38 1138q5 14 17.5 23.5t28.5 9.5q20 0 28 -10q6 -7 7 -17q0 -4 -1 -8 q-3 -14 -14.5 -26t-27.5 -14h-13q-18 4 -24 16q-3 7 -3 14q0 6 2 12z" />
<glyph unicode="j" horiz-adv-x="286" d="M-236 -276q2 10 10.5 22t17.5 24.5t16 20.5l8 8q12 16 25.5 19.5t22.5 -2.5t11 -20.5t-6 -33.5q-10 -16 -22.5 -32.5t-14.5 -36.5q18 -18 59 -30.5t87 -14.5h16q36 0 68 7q40 9 57 34q10 14 16 36.5t9 46t3 45v36.5v48q0 97 -6 193q-8 119 -21.5 239t-26.5 239.5 t-21 240.5q2 12 11 24.5t20.5 18.5t22.5 3t17 -21q12 -201 37 -398.5t35 -400.5q2 -43 6 -97q3 -35 3 -71q0 -18 -1 -36q-2 -54 -14 -105.5t-41 -87.5q-18 -27 -60 -43.5t-92 -23.5q-31 -4 -63 -4q-18 0 -37 1q-51 4 -90 21.5t-58 48.5q-10 18 -10 42q0 18 6 40zM98 1156 q0 12 6 28l19 22q13 13 24 13q3 0 5 -1q14 -4 20 -14q12 -4 15 -15q1 -5 1 -10q0 -6 -2 -13q-4 -13 -14 -23t-25 -13q-8 0 -15 -1h-5q-5 0 -12 1q-17 12 -17 26z" />
<glyph unicode="k" horiz-adv-x="727" d="M25 711q-1 67 -1 134q0 133 5 265q8 198 12 397q2 16 14.5 28.5t24.5 16.5q4 1 9 1q7 0 13 -4q10 -7 11 -29q-5 -198 -13 -392q-6 -132 -5 -266q0 -63 1 -127l6 -170q45 33 103.5 77t113 84t96.5 72t52 42q33 29 52.5 14.5t0.5 -51.5q-2 -10 -46 -43t-104.5 -76t-126 -91 t-112.5 -87q10 -8 47 -35t88 -64.5t109.5 -81.5t114 -86t100.5 -77t69 -56q8 4 19.5 -1t34.5 -29q3 -8 3 -16q0 -17 -11.5 -33.5t-28.5 -16.5q-9 0 -19 4l-2 2q-14 12 -63 50t-123 93.5t-166 124t-192 144.5q6 -86 12 -168t10 -166q4 -12 4 -20q0 -14 -2 -21q-4 -14 -13 -25 q-10 -10 -20 -14q-5 -2 -9 -2q-6 0 -11 3q-10 5 -16 22v4q-2 29 -5.5 81t-7.5 117.5t-9 136t-9 136.5t-7 118t-3 81z" />
<glyph unicode="l" horiz-adv-x="278" d="M18 1548q2 12 11.5 24.5t20.5 18.5q7 4 15 4q3 0 7 -1q12 -3 18 -21q2 -174 7.5 -347t15.5 -347q15 -215 31 -426q9 -128 10 -259q0 -84 -4 -169q-4 -12 -14 -23q-8 -10 -20 -14q-5 -2 -10 -2q-6 0 -12 3q-10 5 -16 21v23q3 74 3 148q1 133 -9 263q-14 202 -29 410 q-12 174 -17.5 347t-7.5 347z" />
<glyph unicode="m" d="M18 788q2 12 11.5 24.5t20.5 19t22.5 3t17.5 -21.5q10 -129 41 -250t55 -248q10 55 35 139.5t64 164t95 139t130 65.5h5q29 -1 57 -21q32 -22 57.5 -58.5t43 -81t19.5 -82.5q27 78 77 152q49 73 111 110q44 27 90 27q18 -1 36 -5q64 -14 118 -112q41 -68 66 -170 q24 -100 34 -206q8 -82 9 -160q0 -22 -1 -44q-3 -98 -15 -160q-14 0 -24.5 -1t-21.5 9q-14 72 -18 177.5t-16.5 216t-39 210t-85.5 158.5q-20 20 -46 20q-20 0 -44 -12q-56 -28 -106 -115t-80 -231q-19 -94 -19 -211q0 -63 6 -133q0 -4 -1 -5t-1 -5l-2 -2q0 -2 -4 -10 q-10 -16 -23 -23h-2q-2 -2 -8 -2h-12q0 2 -4 2l-9 8q-4 8 -4 11q-2 2 -2 8q0 27 -1 105.5t-7 172t-22.5 184.5t-46.5 143q-29 49 -74 49h-6q-48 -3 -119 -99q-45 -61 -76 -142t-49.5 -165t-25.5 -161t-7 -130q1 -19 -15 -31q-12 -9 -27 -9q-5 0 -11 1l-6 4q-12 10 -19 27 q-4 100 -20.5 195.5t-36 187.5l-39 184t-25.5 190z" />
<glyph unicode="n" horiz-adv-x="776" d="M20 831q2 14 14 27q12 12 24 18q6 3 11.5 2.5t10.5 -2.5q10 -6 12 -24v-8q0 -96 1 -190.5t3 -190.5q12 41 28.5 85t37 84t42 73.5t46.5 58.5q60 62 110 84q35 16 67 16q13 0 25 -3q42 -9 80.5 -48t83.5 -96q25 -33 53.5 -117t45 -185.5t16.5 -202.5t-33 -171q-2 -2 -2 -6 h-2q-6 -14 -18 -20.5t-23.5 -5.5t-18.5 11.5t-3 28.5q23 63 25 145v17q0 74 -12 150q-13 85 -36.5 165t-52.5 140q-23 45 -52.5 73.5t-65.5 36.5q-13 3 -26 3q-23 0 -47 -9q-36 -14 -69 -55q-59 -72 -92 -153t-49.5 -167t-23.5 -176t-13 -176q-2 -23 -3 -40t-10 -38 q-12 -25 -34 -28h-4q-20 0 -29 28q-4 31 -5 64.5t-1 68.5v68v57q-2 154 -6.5 304t-4.5 304z" />
<glyph unicode="o" horiz-adv-x="616" d="M1 261v21q0 42 3 88q4 56 10 107t15 78q6 23 28.5 77t56.5 108q33 56 74 94q35 33 71 33l11 -1q49 -12 96.5 -54t87.5 -100.5t70.5 -127t49.5 -134.5q18 -66 21 -124v-18q0 -46 -13 -77q-41 -94 -124 -151q-83 -56 -173 -68q-20 -3 -40 -3q-67 0 -128 30q-78 39 -107 141 q-8 29 -9 81zM67 398q-1 -16 -1 -33q0 -57 12 -107q14 -64 46 -110t82 -59q17 -5 37 -4q37 -1 83 15q70 24 157 103q27 29 27 90t-18.5 133t-51 143.5t-71.5 123.5t-79 76q-19 11 -36 11q-19 0 -37 -14q-51 -41 -77.5 -100.5t-45.5 -120.5q-23 -71 -27 -147z" />
<glyph unicode="p" horiz-adv-x="724" d="M8 776q2 12 11.5 24.5t20.5 18.5t22.5 3t17.5 -21q4 -154 12 -303q12 78 26.5 148.5t49.5 117.5q23 31 42 64.5t52 50.5q36 21 71 21h13q41 -5 76 -27.5t63.5 -57.5t49.5 -67q6 -8 14 -23.5t18.5 -34t18.5 -39t14 -37.5q20 -59 30.5 -84.5t15.5 -45t8 -45t14 -85.5 q4 -29 4 -56q0 -66 -23 -128q-33 -88 -97.5 -146.5t-152.5 -75.5q-24 -5 -48 -5q-66 0 -134 34q-25 10 -51.5 25.5t-44.5 32.5q0 -143 7 -218t14.5 -112t9.5 -52t-7 -38q-16 -37 -29 -45q-6 -4 -11.5 -4t-10.5 4q-10 8 -17 23.5t-11 21.5q-2 0 -2.5 48t-2.5 122t-4 161 t-8 165q-10 168 -23.5 333.5t-17.5 331.5zM133 339q-1 -32 -1 -62q0 -60 5 -113q25 -49 76 -86t109 -52q32 -7 63 -7q26 0 53 5q56 13 90 66q39 57 54 118q14 55 14 109v15q-2 61 -19.5 122.5t-44.5 123.5q-6 12 -19 39.5t-31.5 59.5t-42 64.5t-49 54t-52.5 27.5q-6 1 -13 1 q-19 0 -38 -13q-51 -41 -84 -117t-49.5 -168t-20.5 -187z" />
<glyph unicode="q" horiz-adv-x="669" d="M1 256q15 102 62.5 199.5t115 185.5t128.5 156q37 41 78 63.5t79 26.5q10 1 19 1q27 0 51 -9q32 -12 50 -43q23 -18 28 -96q2 -47 2 -105q0 -39 -1 -83q-3 -110 -9 -239t-8 -251v-49q0 -95 6 -177q8 -102 35 -160q12 -29 47 -40q14 -4 27 -4q19 0 37 10q31 16 55 38.5 t53 43.5q18 6 28.5 0.5t13.5 -16.5q1 -5 1 -10q0 -7 -2 -14q-4 -14 -16 -24q-31 -23 -70 -55.5t-76 -46.5q-34 -12 -62 -12q-33 0 -56 18q-42 33 -62 101.5t-25 158.5q-2 54 -2 107q0 36 1 71q3 88 7 160q3 37 3 64q0 23 -2 38q-41 -63 -84 -107t-105 -91q-27 -20 -69.5 -49 t-88.5 -43q-24 -6 -46.5 -6t-44.5 6q-44 14 -70 79q-32 74 -32 150q0 26 4 53zM72 227q-3 -25 -3 -47q0 -36 8 -64q13 -44 46 -60q16 -7 36 -7q21 0 47 9q50 16 116 73q68 59 118.5 121.5t85.5 142.5q12 18 18 75q4 49 4 102v20q-1 63 -8.5 118.5t-19.5 67.5q-20 18 -44 22 q-7 1 -14 1q-16 0 -32 -5q-22 -8 -43.5 -22t-38.5 -31q-49 -47 -96 -107.5t-84 -128t-62.5 -139t-33.5 -141.5z" />
<glyph unicode="r" horiz-adv-x="532" d="M12 181q-1 21 -1 43q0 32 2 70q3 62 3 138q1 63 1 125v63q-1 94 -1 185q2 16 14 29q14 12 26 16q5 1 8 1q7 0 14 -4q10 -7 10 -30v-86q33 63 82 92q34 18 74 18q1 -1 2 -1q41 0 76 -6q39 -6 80.5 -13.5t76.5 -27.5q16 -11 16 -25q1 -7 -3 -14q-10 -23 -31 -33q-2 0 -4 -1 t-4 -1q-29 -6 -35 12q-25 10 -55.5 19.5t-61.5 13.5t-59.5 2t-48.5 -12q-29 -14 -48.5 -50t-32 -82.5t-18.5 -96.5t-6 -93q0 -98 11.5 -170t21.5 -139q4 -20 8 -48t-4 -50q0 -2 -2 -5.5t-2 -1.5q-11 -20 -29 -27q-4 -2 -8 -2q-14 0 -27 17q-25 37 -34 80t-11 95z" />
<glyph unicode="s" horiz-adv-x="770" d="M-3 144q-1 5 -1 12q0 30 22 71q12 16 25.5 19.5t23 -2.5t11.5 -20.5t-6 -33.5q0 -4 -4 -8q41 -43 121.5 -77.5t168.5 -46.5q34 -5 67 -6q51 0 98 12q77 20 110 88q3 9 3 18q0 26 -24 54q-34 38 -89.5 80t-124 85t-129 88t-102.5 89t-44 85v7q1 47 25 85q26 41 68 70 t93 43q45 12 86 12h11q46 -2 82.5 -21.5t48.5 -58.5q0 -12 -7.5 -25t-17.5 -21.5t-21.5 -7.5t-21.5 18q-14 37 -54 45q-16 3 -32 3q-25 0 -52 -8q-44 -12 -83 -39.5t-51 -62.5q-4 -25 19.5 -55.5t66.5 -65t99 -73.5t113.5 -79t110.5 -81t92 -82q20 -20 28 -59q2 -12 2 -23 q0 -24 -11 -41q-53 -86 -134 -121q-74 -32 -157 -32h-16q-92 4 -186.5 34.5t-176.5 73.5q-45 24 -50 58z" />
<glyph unicode="t" horiz-adv-x="495" d="M9 780q9 14 24 19q35 8 71.5 12t71.5 8q-6 109 -10 215.5t-4 214.5q-4 6 3 13.5t19 11.5q8 3 16 3q4 0 9 -1q14 -2 24 -14q0 -111 4.5 -218.5t12.5 -218.5q18 2 47 8.5t58.5 12.5t57 9t44.5 1q22 -9 22 -26q1 -4 -1 -10q-8 -24 -32 -38q-35 -10 -86 -18t-104 -16 q6 -86 14.5 -192.5t15.5 -206t13 -179.5t6 -111v-12q0 -16 -9 -29q-8 -14 -20 -20q-7 -4 -14 -4q-5 0 -10 2q-12 4 -19 22v5q-18 180 -21 359t-30 357q-53 -6 -94 -9t-51 -5q-19 -4 -29 5q-9 8 -9 20q0 15 10 30z" />
<glyph unicode="u" horiz-adv-x="677" d="M1 779q1 50 13 79q6 16 17 16q9 0 22 -12q18 -45 22.5 -119.5t5.5 -160.5t4 -173t19.5 -159t52.5 -117t101 -47q135 68 194.5 153t77.5 177q12 64 12 129q0 28 -2 55q-8 92 -8 174q4 23 19.5 38t40.5 5l10 -8l2 2v-4q10 -10 12 -38t2 -62.5t-2 -72.5q-1 -19 -1 -36.5 t1 -32.5q0 -61 6.5 -143t13.5 -161t14 -143.5t9 -92.5v-2h-2q-4 -12 -13 -23q-10 -10 -20 -13q-4 -1 -8 -1q-6 0 -12 2q-10 4 -16 20v4l-19 295q-12 -51 -58 -114.5t-109 -112.5q-62 -48 -132 -72q-33 -11 -63 -12q-34 0 -66 14q-33 14 -56.5 55t-37.5 95.5t-22.5 117 t-12.5 121t-5 107.5t-1 76q0 33 -3 90q-2 43 -2 82v25z" />
<glyph unicode="v" horiz-adv-x="673" d="M6 784q2 14 11.5 25.5t20.5 16.5q8 4 15 4q3 0 7 -1q10 -2 14 -14q37 -41 61.5 -85t44.5 -93q51 -125 93 -254t83 -258q35 82 55.5 168t45.5 170t57.5 168t69.5 162q14 16 28.5 21t30.5 -11l4 -6q2 -8 2 -16q0 -7 -2 -15q-4 -16 -14 -27q-14 -35 -34.5 -92t-44.5 -121.5 t-44.5 -129t-34.5 -113.5q-8 -31 -16 -67t-19.5 -69.5t-29 -64.5t-45.5 -51q-11 -7 -21 -9h-4q-8 0 -18 9q-33 47 -48.5 102t-35.5 109q-33 96 -64 192t-72 189q-6 16 -22.5 38.5t-32.5 46t-28.5 44t-12.5 32.5z" />
<glyph unicode="w" horiz-adv-x="960" d="M-2 764q-2 6 -2 13q0 9 5 21q9 18 31.5 29t51.5 -4q23 -12 39 -64t27.5 -124t18.5 -153t13 -151.5t11.5 -119.5t13.5 -57q16 49 41.5 137t58.5 180t69 174t73 119q12 12 36.5 16t40.5 -10q35 -74 63.5 -152.5t59.5 -162.5t69 -174.5t93 -184.5q12 184 14 365.5t4 363.5 q2 16 14.5 28.5t24.5 16.5q5 1 9 1q7 0 14 -4q10 -7 10 -29q0 -2 2 -73t2 -172t-4 -218t-16.5 -211t-34.5 -150q-16 -40 -38 -40q-9 0 -19 6q-16 8 -39 51t-49.5 105.5t-55 138t-57.5 152.5t-57.5 147.5t-55.5 121.5q-31 -41 -57.5 -103.5t-49 -132t-42 -136t-35.5 -115.5 q-6 -20 -13.5 -47t-15.5 -53.5t-20.5 -51t-28.5 -41.5q-14 -12 -29.5 -15t-27.5 15q-14 12 -25.5 68.5t-20 135.5t-16.5 168t-17 167t-19.5 133t-22.5 66q-2 2 -3 0t-3 -2q-29 -4 -35 12z" />
<glyph unicode="x" horiz-adv-x="800" d="M29 -14q-1 5 -1 10q0 10 5 20q4 8 8 13l14 16q90 90 179.5 177t166.5 188q-63 100 -127.5 199.5t-136.5 193.5q-10 14 -7 29.5t12.5 25.5t23.5 12h4q12 0 25 -10q10 -12 22 -29.5t38 -57.5t73 -111.5t125 -190.5q59 76 117.5 148.5t123.5 142.5q14 12 26.5 12t18.5 -8 q8 -10 8 -27q0 -12 -8 -24q-68 -72 -128 -147.5t-122 -153.5q78 -113 139 -197q60 -83 91 -141q26 -49 26 -79q-1 -5 -1 -9q-6 -30 -54 -33q-8 0 -25.5 26.5t-38 65.5t-44 80t-43.5 70q-27 37 -51.5 75.5t-49.5 77.5l-329 -346l-27 -27q-14 -10 -25 -10h-10q-10 2 -18 19z " />
<glyph unicode="y" horiz-adv-x="741" d="M0 803q2 12 11 24.5t21 18.5q7 4 15 4l7 -1q12 -3 18 -22q8 -53 12 -128.5t12 -159.5t22.5 -168t43 -152.5t74 -113t114.5 -48.5q11 -1 22 -1q33 0 65 10q42 12 76 33.5t60.5 50t42.5 59.5q9 59 9 113q0 15 -1 30q-3 68 -10.5 133.5t-14.5 132.5q-4 35 -4 74q0 33 3 68 q4 25 15.5 41t33.5 -6q16 -16 25.5 -44t12.5 -60t4 -61.5t1 -49.5q2 -47 5 -127t4 -175v-32q0 -81 -4 -165q-5 -101 -18 -189.5t-37 -156t-62 -93.5q-61 -43 -144 -52q-45 -6 -87 -6q-38 0 -75 4q-79 9 -140.5 23t-80.5 14q-16 2 -22 11.5t-4 20.5t8 22.5t16 19.5q10 4 8 8 t6 0q16 -8 71.5 -24.5t126.5 -22.5q27 -2 54 -2q45 0 91 6q73 10 126 57q37 33 54.5 88.5t23.5 111.5t6 101.5v57.5q-141 -98 -242 -108q-17 -2 -33 -2q-79 0 -135 42q-67 51 -106 147.5t-59.5 210t-28.5 229.5t-12 204z" />
<glyph unicode="z" horiz-adv-x="763" d="M-5 816q5 13 17.5 23.5t28.5 10.5q76 0 181.5 3t204.5 3t176 -4t95 -16q10 -8 16.5 -23.5t6.5 -32t-5 -33t-16 -26.5q-53 -57 -117.5 -129t-131 -145.5t-129 -142t-112.5 -122t-81 -83t-33 -25.5q36 -10 88 -10q3 0 7 -1q49 -1 102 7q57 8 113.5 18t104.5 18.5t80 12.5 t40 -2q20 0 28.5 -12.5t5.5 -29t-14.5 -30.5t-27.5 -16q-29 4 -63 4q-22 0 -46 -2q-60 -4 -123 -12.5t-125 -16.5q-60 -8 -112 -9h-12q-44 0 -76 7q-36 8 -50 35q2 18 48.5 80.5t115 143.5t148.5 171t149.5 165t116.5 124t51 49q-4 6 -47 8q-22 1 -49 1t-59 -1 q-66 -2 -142 -5t-144 -5q-45 -1 -82 -1h-36q-52 1 -66 9q-18 4 -24 16q-3 7 -3 14q0 6 2 12z" />
<glyph unicode="{" horiz-adv-x="462" d="M-8 503.5q6 20.5 22 35.5q100 55 151.5 117.5t69 130t9.5 141t-25.5 152.5t-38 162t-26.5 169q-4 47 -4 103.5t20 99.5q23 49 42 78.5t69 58.5q16 8 61 16.5t94 10.5t92.5 -7t55.5 -36q6 -16 1 -31.5t-15.5 -25t-24 -9.5t-25.5 17q-4 8 -18.5 11t-30.5 3t-31.5 -1 t-23.5 -1q-51 -2 -86 -10.5t-58.5 -29t-35 -54t-15.5 -86.5q-6 -104 20.5 -207t49.5 -207q20 -94 23 -177t-15 -156t-61 -134.5t-115 -112.5q49 -6 80 -24q47 -31 65.5 -82t21.5 -112.5t-5.5 -128t-12.5 -129t0 -116t31 -86.5q14 -18 52 -16t81 12.5t84 21.5t60 15 q20 0 27 -9t6 -21.5t-9 -24.5t-20 -19q-31 -6 -69 -19t-78 -23.5t-77.5 -13.5t-70.5 11q-45 20 -63.5 63.5t-23.5 100t1 121t11 125.5t3 116.5t-18 92.5q-14 29 -36 43t-48.5 21.5t-54 11.5t-54.5 12q-20 16 -14 36.5z" />
<glyph unicode="|" horiz-adv-x="296" d="M82 1653q2 16 14.5 28.5t24.5 16.5t22.5 -3t10.5 -30l4 -1798q0 -41 -17.5 -44t-44.5 13q-2 4 -4 16.5t-3 58.5t-2 228.5t-2 347t-2 414.5t-1 752z" />
<glyph unicode="}" horiz-adv-x="542" d="M-153 -151.5q-1 12.5 6.5 21.5t27.5 9q18 -4 59.5 -15t84.5 -21.5t80.5 -12.5t52.5 16q27 33 31 86.5t-0.5 116t-12.5 129t-5 128t21.5 112.5t65.5 82q31 18 80 24q-72 51 -115 112.5t-61.5 134.5t-15 156t23.5 177q23 104 49.5 206.5t20.5 207.5q-4 53 -15.5 86.5 t-35 54t-58.5 29t-86 10.5q-8 0 -23.5 1t-32 1t-30.5 -3t-18 -11q-12 -16 -25.5 -16.5t-24 9t-15.5 25t1 31.5q12 27 55 36t92.5 7t94.5 -10.5t61 -16.5q49 -29 68.5 -58.5t42.5 -78.5q20 -43 20 -99.5t-4 -103.5q-6 -86 -26.5 -169t-38 -162t-25.5 -152.5t9.5 -141 t68.5 -130t151 -117.5q16 -14 22.5 -35t-13.5 -37q-27 -8 -54.5 -12t-54.5 -11.5t-48.5 -21.5t-35.5 -43q-18 -37 -19 -92.5t4 -116.5t11 -125.5t1 -121t-23.5 -99.5t-63.5 -64q-33 -14 -71 -11t-77.5 13.5t-77.5 23.5t-69 19q-12 6 -20.5 18.5t-9.5 25z" />
<glyph unicode="~" horiz-adv-x="815" d="M20 584q10 41 25.5 72.5t38.5 66.5q16 29 39.5 50.5t46.5 43.5q45 41 79 47t59.5 -10t47 -50t41 -70t40 -67.5t44.5 -48.5q33 -23 67 -7t59.5 47.5t43 70.5t17.5 68q2 16 14 28.5t24.5 16.5t22.5 -3.5t10 -29.5q-2 -53 -27.5 -108.5t-66.5 -97.5t-94 -60.5t-111 4.5 q-33 12 -55.5 47t-39.5 73t-33.5 71.5t-39 45t-55.5 -9t-80 -88.5q-16 -25 -28.5 -49t-18.5 -53q-4 -16 -17.5 -26.5t-25.5 -11.5t-21.5 7t-5.5 31z" />
<glyph unicode="&#xa1;" horiz-adv-x="278" d="M32 1380.5q3 14.5 14 25.5t28 15q2 0 3 1t5 1q16 18 39.5 15.5t17.5 -37.5q-6 -29 -26 -42t-47 -13q-23 0 -30 10t-4 24.5zM49 1192q0 16 9.5 29.5t21.5 19.5t23.5 1t17.5 -25q-4 -143 5 -284.5t21.5 -283t24.5 -283t16 -282.5q-2 -12 -11 -24.5t-20.5 -18.5t-22.5 -3 t-17 21q-18 287 -39 566.5t-29 566.5z" />
<glyph unicode="&#xa2;" horiz-adv-x="796" d="M3 834.5q-5 70.5 9.5 136t50 121t93.5 88.5q80 45 170 63q-7 131 -7 264q2 12 11.5 24.5t20.5 18.5t22.5 3t17.5 -21q0 -72 2 -140.5t4 -138.5q86 6 153.5 -10t100.5 -39q16 -6 20.5 -18t0.5 -24.5t-15.5 -22t-25.5 -11.5q-47 20 -106.5 36t-123.5 16q6 -160 14.5 -316.5 t16.5 -314.5q68 6 132.5 32.5t129.5 59.5q20 0 27.5 -9t6.5 -21.5t-9 -25t-21 -18.5q-43 -29 -110.5 -57.5t-153.5 -36.5q10 -195 12 -385q0 -16 -9 -29.5t-21.5 -19.5t-23.5 -1t-17 25q-2 203 -13 410q-39 2 -79.5 10.5t-81.5 26.5q-59 27 -102.5 77t-67 113.5t-28.5 134z M72.5 836.5q9.5 -78.5 52.5 -149t115 -103.5q59 -29 120 -35q-8 156 -17 311.5t-15 310.5q-74 -12 -144 -57q-68 -47 -94.5 -123t-17 -154.5z" />
<glyph unicode="&#xa3;" horiz-adv-x="847" d="M-3 881.5q5 13.5 17.5 23.5t28.5 10h143q-18 63 -28.5 119t-2 108t39 101t90.5 100q53 45 115.5 51.5t123 -11t109.5 -48t76 -57.5q18 -6 21 -20.5t-3 -26.5t-19.5 -21.5t-29.5 -5.5q-68 80 -155 103.5t-158.5 -2t-112.5 -99t-16 -188.5q10 -51 28 -103h256 q20 0 28.5 -10t5.5 -24.5t-14.5 -26.5t-27.5 -14h-219q23 -61 35 -113.5t9 -100.5t-23.5 -96.5t-65.5 -103.5q41 2 79 -21.5t85 -70.5q18 -18 37.5 -39t48.5 -31q14 -4 48 -1t69.5 10.5t65.5 19.5t36 24q12 16 25.5 19.5t22.5 -2.5t11 -20.5t-6 -32.5q-14 -27 -38.5 -40.5 t-53.5 -23.5q-55 -18 -97 -26.5t-79 -3t-73 27t-75 61.5q-23 25 -46 45.5t-54 30.5q-16 6 -35.5 0t-38 -15t-33 -18.5t-16.5 -11.5l-8 -4q-18 -4 -27.5 3t-10.5 18.5t5 24.5t16 22v2q2 0 5 2l16 8l14 10q18 25 41 50.5t43.5 53t33.5 57.5t11 64q-2 55 -18 105.5t-35 101.5 l-6 15h-188q-18 4 -24.5 16t-1.5 25.5z" />
<glyph unicode="&#xa5;" horiz-adv-x="841" d="M14 1346q2 12 12.5 24t22.5 18.5t24.5 3.5t18.5 -22q45 -74 71.5 -119t46 -76.5t33 -57t33 -57.5t46 -77t71.5 -119q43 63 69.5 103.5t57.5 85.5t75 111.5t118 181.5q12 16 28.5 19t28.5 -3t16.5 -20.5t-4.5 -32.5q-80 -127 -138 -213t-99 -144.5t-68.5 -96.5t-48.5 -69 v-18q43 2 81 5t75 6t74.5 5t82.5 2q20 0 28.5 -10t5.5 -24.5t-14 -26.5t-28 -14q-86 -4 -152.5 -9.5t-150.5 -11.5l2 -151q33 4 78 6t86 4t71.5 3t37.5 5q18 10 25 1t5 -25.5t-12 -33t-27 -18.5q-6 -4 -35.5 -5t-69.5 -3t-82 -4t-75 -6l4 -262q0 -16 -10 -28.5t-23.5 -15.5 t-25.5 3t-19 26q0 25 -1 61t-1 74.5v74.5v59q-66 -8 -133 -13.5t-133 -7.5q-18 2 -23.5 13.5t-2 23.5t12.5 23.5t21 15.5q66 2 129.5 7t128.5 11v78t-2 80l-136 -8t-136 -6q-18 2 -23.5 13t-2.5 23.5t12.5 23.5t21.5 16q66 2 131.5 6t130.5 8l-6 20q-33 70 -66.5 125.5 t-72.5 114.5t-86 135t-109 189z" />
<glyph unicode="&#xa6;" horiz-adv-x="282" d="M82 795v751q2 16 14.5 28.5t24.5 16.5t22.5 -3t10.5 -29l2 -984h-72q-2 117 -2 220zM84 201v82l72 -4l2 -877q0 -41 -17.5 -44t-44.5 13q-2 4 -4 16.5t-3 58.5t-2 228.5t-3 526.5z" />
<glyph unicode="&#xa7;" horiz-adv-x="1366" d="M3 352q-13 76 7 183q10 53 24.5 86.5t49.5 72.5q-53 57 -72.5 138t2.5 204q18 104 101.5 202.5t202 177.5t261 130t281.5 63.5t263 -23.5t206 -132q4 -12 1 -27.5t-11 -25.5t-20.5 -12.5t-26.5 8.5q-68 76 -178.5 103.5t-236.5 16t-256 -54.5t-238.5 -109.5 t-184.5 -149.5t-94 -173q-35 -164 27.5 -260t230.5 -137q43 -10 102.5 -15.5t122 -9.5t120.5 -7t101 -9q53 -4 104.5 -12.5t102.5 -18.5q72 -12 131.5 -57t92 -108.5t32.5 -137t-49 -139.5q-12 -16 -39.5 -48t-54.5 -61q47 -31 81 -77t48 -99t6 -109.5t-45 -107.5 q-59 -76 -139 -112.5t-170 -49t-183.5 -8.5t-177.5 12q-78 8 -161 41q-41 14 -62.5 26.5t-33 26t-17.5 34t-12 55.5q2 12 11 24t20.5 18.5t22.5 3.5t17 -22l9 -47q129 -74 281.5 -93.5t299.5 7.5q45 8 95.5 24.5t90 45t63.5 70.5t15 102q-12 86 -65 135t-130 73.5t-169 30.5 t-184.5 9.5t-174.5 8.5t-137 25q-84 31 -147.5 70t-103.5 94t-53 131zM80 528q-35 -164 27.5 -260t230.5 -137q43 -10 102.5 -15t122 -9.5t120.5 -7.5t101 -9q53 -4 104.5 -12t102.5 -19q25 -4 45 -12q25 20 50.5 48t46 58.5t32 62.5t6.5 60q-12 86 -65 135.5t-130 74 t-169 30.5t-184.5 9t-174.5 8.5t-137 25.5q-49 18 -92 38.5t-78 45.5q-29 -25 -40 -47.5t-21 -67.5z" />
<glyph unicode="&#xa8;" horiz-adv-x="421" d="M4 1737v8q6 37 37 47q2 0 14.5 1t14.5 1q31 0 33.5 -27.5t-11.5 -44.5q-6 -10 -25.5 -17t-31.5 -11h-2q-14 4 -19.5 17t-9.5 26zM72 1784l2 -2v2h-2zM250 1737v8q6 37 37 47q2 0 14 1t14 1q31 0 34 -27.5t-11 -44.5q-6 -10 -25.5 -17t-31.5 -11h-2q-14 4 -19.5 17 t-9.5 26zM317 1784l2 -2v2h-2z" />
<glyph unicode="&#xad;" horiz-adv-x="702" d="M21.5 696.5q3.5 12.5 12.5 23.5t21 15q53 2 125 5t147.5 7.5t148.5 7.5t126 3h16l15 -6l6 -7q0 -2 2 -2q2 -6 2 -20q-4 -12 -12 -25l-2 -2q-12 -12 -27 -14h-14q-53 0 -125 -3t-146.5 -7t-146.5 -7.5t-123 -5.5q-18 2 -23.5 13.5t-2 24z" />
<glyph unicode="&#xb4;" horiz-adv-x="399" d="M1 1740.5q3 14.5 22 20.5q2 2 23.5 13.5t53 28t68.5 34.5t69.5 33.5t55 27t24.5 11.5q29 0 43.5 -27t-12.5 -47q-8 0 -51 -20.5t-94 -47t-96.5 -50t-53.5 -29.5q-16 -4 -29.5 5t-19.5 21t-3 26.5z" />
<glyph unicode="&#xb5;" horiz-adv-x="923" d="M25 768q10 29 25.5 37t32.5 5t34.5 -11t34.5 -15q4 -33 12 -89t22.5 -121.5t35 -132t49 -121t63.5 -88t78 -33.5t85 36.5t77.5 96t67.5 132.5t56.5 143.5t42 132t27.5 96.5q6 14 17.5 23t22.5 10t19.5 -6t8.5 -27q0 -53 -19 -121q-4 -61 -3 -136t7 -156t16.5 -164 t24.5 -161q12 -4 17.5 -19.5t-5.5 -37.5l-4 -8q-12 -10 -24 -14.5t-29 6.5q-18 31 -31.5 91t-23.5 127.5t-16.5 134t-8.5 109.5q-12 -23 -32.5 -63.5t-46 -87.5t-57.5 -94t-66.5 -80t-73.5 -47.5t-78 6.5q-68 33 -115 87t-79.5 119.5t-53 140.5t-35.5 148q10 -311 28.5 -618 t23.5 -619q0 -16 -9.5 -29.5t-21.5 -19.5t-23.5 -1t-17.5 26q-2 178 -10.5 354t-17.5 353.5t-17 353.5t-10 352z" />
<glyph unicode="&#xb8;" horiz-adv-x="575" d="M-2 -430q-4 12 2 23.5t29 13.5q2 0 35.5 2t82 5t104.5 7t105.5 10.5t85 12.5t41.5 14q-23 18 -64.5 28.5t-87.5 14.5t-90 4t-73 -2q-45 6 -49 49q6 29 10 63.5t4 71.5t-1 71t-3 62q-4 2 74 -8q2 -25 3 -54.5t1 -61t-2 -62.5t-4 -53q45 0 104.5 -4t113.5 -19.5t95 -46 t47 -80.5q-2 -14 -16 -28q-35 -29 -102.5 -41.5t-143.5 -18.5t-146.5 -7t-109.5 -3q-16 2 -28.5 13.5t-16.5 23.5z" />
<glyph unicode="&#xbf;" horiz-adv-x="843" d="M9 305.5q5 63.5 34 125t70 113.5t77 79q25 18 53.5 34.5t57.5 34t54.5 38t43.5 44.5q18 31 25.5 71t7.5 83t-5 84t-7 75q0 2 -1 3.5t-1 3.5q0 16 9 29.5t21.5 19.5t23.5 0t17 -27q6 -41 11.5 -94t3.5 -106.5t-15.5 -103.5t-44.5 -83q-47 -49 -105 -88t-112.5 -80 t-94.5 -94t-46 -133q-4 -53 18.5 -94t61.5 -69t87 -41t95 -9q147 10 232.5 96t136.5 252q-4 12 0 26.5t12 24.5t20.5 12.5t24.5 -8.5q4 -109 -30.5 -200t-96 -156.5t-143.5 -99t-172 -25.5q-51 4 -92 11t-75 22.5t-64.5 44.5t-61.5 76q-35 45 -30 108.5zM380 1366 q3 14 14.5 25.5t27.5 15.5q2 0 3 1t5 1q16 18 40 15t17 -38q-6 -29 -26 -42t-47 -13q-23 0 -30 10.5t-4 24.5z" />
<glyph unicode="&#xc0;" d="M-49 35q-4 -8 23.5 45t75.5 147.5t111.5 218t132 258t137.5 269.5t124 249.5t94 199.5t49 120q14 35 43 34t25 -38q12 -35 29.5 -81t43 -120.5t61.5 -182t86 -263.5t115.5 -367t153.5 -489q-2 -18 -11 -28.5t-20.5 -11.5t-22.5 6t-17 24q2 -10 -20.5 55t-58.5 177 t-83 256t-94 294q-129 -4 -254 -14.5t-256 -12.5q-63 -125 -124 -246.5t-114 -226t-97 -185.5t-71 -124q-27 -23 -51 -10.5t-10 47.5zM455 854q117 4 227.5 15.5t224.5 17.5q-55 174 -98 322.5t-76 232.5q-41 -109 -116.5 -262.5t-161.5 -325.5zM509.5 1882q14.5 27 43.5 27 q2 0 30.5 -14.5t70.5 -36t90.5 -46t89 -47t68.5 -37t30 -16.5q18 -6 21 -20.5t-3 -26.5t-19 -21.5t-30 -5.5q-6 4 -34.5 20.5t-69.5 38t-87 46t-86 45t-69 34t-33 13.5q-27 20 -12.5 47z" />
<glyph unicode="&#xc1;" d="M-49 35q-4 -8 23.5 45t75.5 147.5t111.5 218t132 258t137.5 269.5t124 249.5t94 199.5t49 120q14 35 43 34t25 -38q12 -35 29.5 -81t43 -120.5t61.5 -182t86 -263.5t115.5 -367t153.5 -489q-2 -18 -11 -28.5t-20.5 -11.5t-22.5 6t-17 24q2 -10 -20.5 55t-58.5 177 t-83 256t-94 294q-129 -4 -254 -14.5t-256 -12.5q-63 -125 -124 -246.5t-114 -226t-97 -185.5t-71 -124q-27 -23 -51 -10.5t-10 47.5zM455 854q117 4 227.5 15.5t224.5 17.5q-55 174 -98 322.5t-76 232.5q-41 -109 -116.5 -262.5t-161.5 -325.5zM513 1691.5q3 14.5 22 20.5 q2 2 29.5 16.5t68.5 37t89 47t90 46t70.5 36t30.5 14.5q29 0 43.5 -27t-12.5 -47q-6 0 -33.5 -13.5t-67.5 -34t-86 -45t-87 -46t-70 -38t-35 -20.5q-16 -4 -29.5 5.5t-19.5 21.5t-3 26.5z" />
<glyph unicode="&#xc2;" d="M-49 35q-4 -8 23.5 45t75.5 147.5t111.5 218t132 258t137.5 269.5t124 249.5t94 199.5t49 120q14 35 43 34t25 -38q12 -35 29.5 -81t43 -120.5t61.5 -182t86 -263.5t115.5 -367t153.5 -489q-2 -18 -11 -28.5t-20.5 -11.5t-22.5 6t-17 24q2 -10 -20.5 55t-58.5 177 t-83 256t-94 294q-129 -4 -254 -14.5t-256 -12.5q-63 -125 -124 -246.5t-114 -226t-97 -185.5t-71 -124q-27 -23 -51 -10.5t-10 47.5zM455 854q117 4 227.5 15.5t224.5 17.5q-55 174 -98 322.5t-76 232.5q-41 -109 -116.5 -262.5t-161.5 -325.5zM476 1602q-7 17 3 40 q25 37 59.5 81t68.5 84t58.5 69t28.5 33q23 33 49.5 30.5t40.5 -30.5q2 0 30 -32t63.5 -73t71.5 -82t55 -59q10 -27 -5.5 -44t-44.5 5q-29 31 -62.5 65.5t-63 66.5t-52 56.5t-31.5 32.5q-4 2 -19 -16.5t-38.5 -46t-50.5 -60t-51.5 -61.5t-45 -48.5t-28.5 -21.5 q-29 -6 -36 11z" />
<glyph unicode="&#xc3;" d="M-49 35q-4 -8 23.5 45t75.5 147.5t111.5 218t132 258t137.5 269.5t124 249.5t94 199.5t49 120q14 35 43 34t25 -38q12 -35 29.5 -81t43 -120.5t61.5 -182t86 -263.5t115.5 -367t153.5 -489q-2 -18 -11 -28.5t-20.5 -11.5t-22.5 6t-17 24q2 -10 -20.5 55t-58.5 177 t-83 256t-94 294q-129 -4 -254 -14.5t-256 -12.5q-63 -125 -124 -246.5t-114 -226t-97 -185.5t-71 -124q-27 -23 -51 -10.5t-10 47.5zM442 1667q45 98 83 149.5t72 68t65.5 3t60.5 -43t57.5 -68.5t59.5 -76q14 -18 40.5 -5t51 42.5t44 64.5t19.5 60q2 14 13.5 23t23.5 10 t22.5 -6t10.5 -25q-2 -47 -30.5 -100.5t-66.5 -93.5t-80 -57.5t-71 7.5q-25 23 -47 55.5t-45 63t-45.5 51t-47 17.5t-53 -37.5t-61.5 -114.5q-4 -16 -16.5 -23.5t-26.5 -5.5t-24.5 12.5t-8.5 28.5zM455 854q117 4 227.5 15.5t224.5 17.5q-55 174 -98 322.5t-76 232.5 q-41 -109 -116.5 -262.5t-161.5 -325.5z" />
<glyph unicode="&#xc4;" d="M-49 35q-4 -8 23.5 45t75.5 147.5t111.5 218t132 258t137.5 269.5t124 249.5t94 199.5t49 120q14 35 43 34t25 -38q12 -35 29.5 -81t43 -120.5t61.5 -182t86 -263.5t115.5 -367t153.5 -489q-2 -18 -11 -28.5t-20.5 -11.5t-22.5 6t-17 24q2 -10 -20.5 55t-58.5 177 t-83 256t-94 294q-129 -4 -254 -14.5t-256 -12.5q-63 -125 -124 -246.5t-114 -226t-97 -185.5t-71 -124q-27 -23 -51 -10.5t-10 47.5zM455 854q117 4 227.5 15.5t224.5 17.5q-55 174 -98 322.5t-76 232.5q-41 -109 -116.5 -262.5t-161.5 -325.5zM561 1763v9q6 37 37 47 q2 0 14.5 1t14.5 1q31 0 34 -28t-12 -44q-6 -10 -25.5 -17.5t-31.5 -11.5h-2q-14 4 -19.5 17.5t-9.5 25.5zM629 1810l2 -2v2h-2zM807 1763v9q6 37 37 47q2 0 14 1t14 1q31 0 34 -28t-11 -44q-6 -10 -25.5 -17.5t-31.5 -11.5h-2q-14 4 -19.5 17.5t-9.5 25.5zM874 1810l3 -2v2 h-3z" />
<glyph unicode="&#xc5;" d="M-49 35q-4 -8 23.5 45t75.5 147.5t111.5 218t132 258t137.5 269.5t124 249.5t94 199.5t49 120q14 35 43 34t25 -38q12 -35 29.5 -81t43 -120.5t61.5 -182t86 -263.5t115.5 -367t153.5 -489q-2 -18 -11 -28.5t-20.5 -11.5t-22.5 6t-17 24q2 -10 -20.5 55t-58.5 177 t-83 256t-94 294q-129 -4 -254 -14.5t-256 -12.5q-63 -125 -124 -246.5t-114 -226t-97 -185.5t-71 -124q-27 -23 -51 -10.5t-10 47.5zM455 854q117 4 227.5 15.5t224.5 17.5q-55 174 -98 322.5t-76 232.5q-41 -109 -116.5 -262.5t-161.5 -325.5zM576.5 1758.5 q15.5 58.5 59.5 104.5t102.5 65.5t105.5 -11.5q39 -29 63.5 -55.5t32.5 -67.5q10 -57 -29 -99t-97 -61.5t-118.5 -15.5t-93.5 39q-41 43 -25.5 101.5zM642 1750q-7 -28 11 -44q16 -16 52 -19.5t72 5t63.5 27.5t27.5 48q0 27 -19.5 60t-72.5 43q-27 0 -55.5 -19.5t-50 -46 t-28.5 -54.5z" />
<glyph unicode="&#xc6;" horiz-adv-x="1566" d="M23 33q2 4 22 47q29 53 378 711.5t433 803.5q12 6 22.5 1t630.5 -7q20 0 28.5 -10t5.5 -24.5t-14 -26.5t-28 -15h-606v-657h420q20 -2 28.5 -15.5t5.5 -26.5t-17.5 -23.5t-39.5 -4.5l-397 -6v-712q98 0 122.5 5t117 11t183.5 9t187 -3q8 0 13.5 -10t5.5 -22.5t-6.5 -21.5 t-18.5 -5q-76 -8 -179 -13.5t-211 -8.5t-139.5 -7t-101.5 -10q-14 4 -20 12t-14 16q-2 4 -4.5 18.5t-3.5 65t-2 148.5t-3 266q0 113 -2 264h-321q-385 -741 -412 -784q-27 -23 -52.5 -10.5t-10.5 45.5zM535 856h284v543zM895 780v2v-2z" />
<glyph unicode="&#xc7;" horiz-adv-x="1159" d="M18 772q72 375 132.5 484.5t145.5 193.5t190.5 124t226.5 26.5t254 -99.5v-2v2v2l2 -6l-2 2q2 -14 -4 -26q-6 -14 -16.5 -21.5t-23 -7.5t-22.5 16q-127 78 -248 71t-224 -69.5t-181 -169t-115 -229.5q-35 -115 -41 -250t22.5 -264t97.5 -240.5t185 -177.5 q53 -31 143.5 -52.5t187.5 -17t185 44t138 134.5q8 18 21 26t24.5 6t18.5 -13t1 -32q-18 -74 -72.5 -121t-125 -74.5t-148.5 -37.5q-55 -6 -104 -8q2 -49 1 -109.5t-5 -101.5q45 0 104 -4t113.5 -19.5t95.5 -46.5t47 -80q-2 -14 -16 -28q-35 -29 -102.5 -41.5t-143.5 -18.5 t-146.5 -7t-109.5 -3q-16 2 -28.5 13t-16.5 23.5t2 24t28 13.5q2 0 36 2t82 5t104.5 7t105.5 10t85 12.5t42 14.5q-23 18 -64.5 28.5t-88 14.5t-90.5 4t-72 -2q-45 6 -49 49q12 49 14 116.5t-2 121.5q-137 4 -242 67q-115 72 -189.5 185.5t-110.5 256t-32 279.5z" />
<glyph unicode="&#xc8;" horiz-adv-x="927" d="M29 1552q2 14 13 26.5t23.5 18t22.5 0t12 -23.5q180 4 378 9t378 7q20 0 28.5 -10t5.5 -24.5t-14.5 -26.5t-27.5 -15q-178 -2 -373.5 -7t-374.5 -9l2 -620q8 4 17 4q117 0 231.5 5t231.5 5q20 0 28 -10.5t5 -24.5t-14 -26.5t-28 -14.5q-119 0 -235.5 -5t-235.5 -5l2 -737 q98 0 191.5 5t185.5 11t183.5 9t187.5 -3q8 0 13 -10t5 -22.5t-6 -21.5t-18 -5q-76 -8 -179.5 -13.5t-211 -8.5t-207.5 -7t-170 -10q-14 4 -20.5 12t-14.5 16q-2 4 -4 18.5t-3 65t-2 148.5t-2 267t-2 421t-1 612zM210.5 1960q14.5 27 43.5 27q2 0 30.5 -14.5t70.5 -36 t90.5 -46t89 -47t68.5 -37t30 -16.5q18 -6 21 -20.5t-3 -26.5t-19.5 -21.5t-29.5 -5.5q-6 4 -34.5 20.5t-69.5 38t-87 46t-86 45t-69 34t-33 13.5q-27 20 -12.5 47z" />
<glyph unicode="&#xc9;" horiz-adv-x="927" d="M29 1552q2 14 13 26.5t23.5 18t22.5 0t12 -23.5q180 4 378 9t378 7q20 0 28.5 -10t5.5 -24.5t-14.5 -26.5t-27.5 -15q-178 -2 -373.5 -7t-374.5 -9l2 -620q8 4 17 4q117 0 231.5 5t231.5 5q20 0 28 -10.5t5 -24.5t-14 -26.5t-28 -14.5q-119 0 -235.5 -5t-235.5 -5l2 -737 q98 0 191.5 5t185.5 11t183.5 9t187.5 -3q8 0 13 -10t5 -22.5t-6 -21.5t-18 -5q-76 -8 -179.5 -13.5t-211 -8.5t-207.5 -7t-170 -10q-14 4 -20.5 12t-14.5 16q-2 4 -4 18.5t-3 65t-2 148.5t-2 267t-2 421t-1 612zM214 1769.5q3 14.5 22 20.5q2 2 29.5 16.5t68.5 37t89 47 t90 46t70.5 36t30.5 14.5q29 0 43.5 -27t-12.5 -47q-6 0 -33.5 -13.5t-67.5 -34t-86 -45t-87 -46t-70 -38t-35 -20.5q-16 -4 -29.5 5.5t-19.5 21.5t-3 26.5z" />
<glyph unicode="&#xca;" horiz-adv-x="927" d="M29 1552q2 14 13 26.5t23.5 18t22.5 0t12 -23.5q180 4 378 9t378 7q20 0 28.5 -10t5.5 -24.5t-14.5 -26.5t-27.5 -15q-178 -2 -373.5 -7t-374.5 -9l2 -620q8 4 17 4q117 0 231.5 5t231.5 5q20 0 28 -10.5t5 -24.5t-14 -26.5t-28 -14.5q-119 0 -235.5 -5t-235.5 -5l2 -737 q98 0 191.5 5t185.5 11t183.5 9t187.5 -3q8 0 13 -10t5 -22.5t-6 -21.5t-18 -5q-76 -8 -179.5 -13.5t-211 -8.5t-207.5 -7t-170 -10q-14 4 -20.5 12t-14.5 16q-2 4 -4 18.5t-3 65t-2 148.5t-2 267t-2 421t-1 612zM191.5 1692.5q-6.5 17.5 3.5 40.5q25 37 59.5 81t68 83.5 t58.5 68.5t29 33q23 33 49 31t41 -31q2 0 29.5 -32t63.5 -73t71.5 -81.5t54.5 -59.5q10 -27 -5.5 -44t-43.5 5q-29 31 -63 66t-63.5 66.5t-52 56t-30.5 32.5q-4 0 -19.5 -17t-39 -45t-50 -60.5t-51.5 -61.5t-45 -48.5t-29 -21.5q-29 -6 -35.5 11.5z" />
<glyph unicode="&#xcb;" horiz-adv-x="927" d="M29 1552q2 14 13 26.5t23.5 18t22.5 0t12 -23.5q180 4 378 9t378 7q20 0 28.5 -10t5.5 -24.5t-14.5 -26.5t-27.5 -15q-178 -2 -373.5 -7t-374.5 -9l2 -620q8 4 17 4q117 0 231.5 5t231.5 5q20 0 28 -10.5t5 -24.5t-14 -26.5t-28 -14.5q-119 0 -235.5 -5t-235.5 -5l2 -737 q98 0 191.5 5t185.5 11t183.5 9t187.5 -3q8 0 13 -10t5 -22.5t-6 -21.5t-18 -5q-76 -8 -179.5 -13.5t-211 -8.5t-207.5 -7t-170 -10q-14 4 -20.5 12t-14.5 16q-2 4 -4 18.5t-3 65t-2 148.5t-2 267t-2 421t-1 612zM276 1819v8q6 37 37 47q2 0 14.5 1t14.5 1q31 0 34 -27.5 t-11 -44.5q-6 -10 -26 -17t-32 -11h-2q-14 4 -19 17zM344 1866l2 -2v2h-2zM522 1819v8q6 37 37 47q2 0 14.5 1t14.5 1q31 0 34 -27.5t-12 -44.5q-6 -10 -25.5 -17t-31.5 -11h-2q-14 4 -19.5 17t-9.5 26zM590 1866l2 -2v2h-2z" />
<glyph unicode="&#xcc;" horiz-adv-x="368" d="M-2.5 1882q14.5 27 43.5 27q4 0 49 -22.5t99.5 -49.5t99.5 -50.5t47 -25.5q18 -6 21 -20.5t-3 -26.5t-19 -21.5t-30 -4.5q-10 6 -54 29.5t-95.5 50t-94.5 47t-51 20.5q-27 20 -12.5 47zM125 1511q2 16 14.5 28.5t24.5 17t22.5 -3t10.5 -29.5l4 -1479q0 -41 -17.5 -44 t-44.5 13q-2 4 -4 16.5t-3 58.5t-2 139.5t-2 258t-2 414.5t-1 610z" />
<glyph unicode="&#xcd;" horiz-adv-x="364" d="M1 1740.5q3 14.5 22 20.5q2 2 23.5 13.5t53 28t68.5 34.5t69.5 33.5t55 27t24.5 11.5q29 0 43.5 -27t-12.5 -47q-8 0 -51 -20.5t-94 -47t-96.5 -50t-53.5 -29.5q-16 -4 -29.5 5t-19.5 21t-3 26.5zM125 1511q2 16 14.5 28.5t24.5 17t22.5 -3t10.5 -29.5l4 -1479 q0 -41 -17.5 -44t-44.5 13q-2 4 -4 16.5t-3 58.5t-2 139.5t-2 258t-2 414.5t-1 610z" />
<glyph unicode="&#xce;" horiz-adv-x="391" d="M3 1694.5q-7 17.5 3 40.5q49 72 87 117.5t46 54.5q23 33 49.5 30.5t40.5 -30.5q2 0 19.5 -21.5t41 -51.5t49.5 -60.5t44 -49.5q10 -27 -5.5 -44t-43.5 6q-59 61 -93 101t-51 56q-6 2 -24.5 -21.5t-42 -53t-47 -56t-37.5 -29.5q-29 -6 -36 11.5zM133 1511q2 16 14.5 28.5 t24.5 17t22.5 -3t10.5 -29.5l4 -1479q0 -41 -17.5 -44t-44.5 13q-2 4 -4 16.5t-3 58.5t-2 139.5t-2 258t-2 414.5t-1 610z" />
<glyph unicode="&#xcf;" horiz-adv-x="376" d="M4 1737v8q6 37 37 47q2 0 14.5 1t14.5 1q31 0 33.5 -27.5t-11.5 -44.5q-6 -10 -25.5 -17t-31.5 -11h-2q-14 4 -19.5 17t-9.5 26zM72 1784l2 -2v2h-2zM141 1511q2 16 14.5 28.5t25 17t22.5 -3t10 -29.5l4 -1479q0 -41 -17.5 -44t-43.5 13q-2 4 -4 16.5t-3.5 58.5 t-2.5 139.5t-2 258t-2 414.5t-1 610zM250 1737v8q6 37 37 47q2 0 14 1t14 1q31 0 34 -27.5t-11 -44.5q-6 -10 -25.5 -17t-31.5 -11h-2q-14 4 -19.5 17t-9.5 26zM317 1784l2 -2v2h-2z" />
<glyph unicode="&#xd0;" horiz-adv-x="1099" d="M-114 793.5q5 13.5 17.5 23.5t28.5 10q25 -2 49.5 -3t47.5 -1q0 86 2 185q2 240 6 561v4q-8 10 -1 30.5t21 30.5q92 23 201 9.5t217.5 -56.5t210.5 -112.5t182 -159.5t130.5 -197.5t56.5 -224.5q10 -227 -53.5 -387t-194.5 -263.5t-324.5 -158.5t-441.5 -76q-2 10 -5 40 t-4 95.5t-2 176t-1 280.5v145l-117 7q-18 4 -24.5 16t-1.5 25.5zM109 80q43 10 130 24.5t191.5 44t211 81t190 134t129 205.5t12.5 412q-78 254 -257 384t-326.5 177t-280.5 33v-754q74 0 147.5 3t146.5 12q20 0 28.5 -10.5t5.5 -25t-14 -26.5t-28 -14q-72 -8 -143.5 -11.5 t-142.5 -3.5v-665z" />
<glyph unicode="&#xd1;" horiz-adv-x="1110" d="M11 60.5q-1 58.5 5.5 233.5t17.5 483t32 782q4 14 15 25t23.5 15.5t22.5 -2t10 -26.5q0 -4 2 -4l774 -1442q-2 125 -7 475.5t-7 958.5q2 16 14.5 28t24.5 16.5t22.5 -3t10.5 -29.5l10 -1512l-6 -8q10 -29 -4.5 -37t-42.5 -4q-4 2 -21.5 27.5t-55.5 87t-97.5 165 t-147.5 263.5t-206.5 382t-274.5 519l-45 -1399q-4 -41 -21.5 -44t-42.5 16q-4 -25 -5 33.5zM221 1741q45 98 83 149.5t72 67.5t65.5 3t60 -43t57.5 -69t59 -75q14 -18 41 -5t51.5 42.5t44 64.5t19.5 59q2 14 13.5 23.5t23.5 10.5t22.5 -6t10.5 -26q-2 -47 -31 -100 t-66.5 -93t-79.5 -57.5t-71 7.5q-25 20 -47.5 54t-45 64.5t-45 51t-47 17.5t-53 -37.5t-61.5 -114.5q-4 -16 -16.5 -23.5t-26.5 -5.5t-24.5 12t-8.5 29z" />
<glyph unicode="&#xd2;" horiz-adv-x="1513" d="M2 770q-10 172 43 354q10 37 35.5 81t57.5 87t67.5 81t66.5 61q215 154 391.5 191.5t311.5 -7.5t229 -157.5t146.5 -260t61.5 -314.5t-24.5 -322.5t-112.5 -282.5t-202 -195q-162 -88 -316.5 -96t-286.5 46t-234.5 163.5t-163 254t-70.5 316.5zM81 904.5 q-13 -154.5 26.5 -310.5t129 -276.5t223.5 -190t306 -53.5q176 6 298 95t190.5 224t86 299t-13.5 319.5t-108.5 285.5t-198.5 199t-284 58.5t-365 -137.5q-135 -84 -206 -221t-84 -291.5zM530.5 1984q14.5 27 42.5 27q2 0 31 -14.5t71 -36t90 -46t89 -47t68.5 -36.5 t29.5 -16q18 -6 21.5 -20.5t-2.5 -27t-19.5 -21.5t-29.5 -5q-6 4 -35 20.5t-70 38t-87 46t-86 45t-68.5 33.5t-32.5 13q-27 20 -12.5 47z" />
<glyph unicode="&#xd3;" horiz-adv-x="1513" d="M2 770q-10 172 43 354q10 37 35.5 81t57.5 87t67.5 81t66.5 61q215 154 391.5 191.5t311.5 -7.5t229 -157.5t146.5 -260t61.5 -314.5t-24.5 -322.5t-112.5 -282.5t-202 -195q-162 -88 -316.5 -96t-286.5 46t-234.5 163.5t-163 254t-70.5 316.5zM81 904.5 q-13 -154.5 26.5 -310.5t129 -276.5t223.5 -190t306 -53.5q176 6 298 95t190.5 224t86 299t-13.5 319.5t-108.5 285.5t-198.5 199t-284 58.5t-365 -137.5q-135 -84 -206 -221t-84 -291.5zM533.5 1794q3.5 14 21.5 21q2 2 29.5 16t68.5 36.5t89.5 47t90 46t70.5 36t31 14.5 q29 0 43.5 -27t-12.5 -47q-6 0 -34 -13t-68 -33.5t-86 -45t-87 -46t-69.5 -38t-34.5 -20.5q-16 -4 -29.5 5t-20 21.5t-3 26.5z" />
<glyph unicode="&#xd4;" horiz-adv-x="1513" d="M2 770q-10 172 43 354q10 37 35.5 81t57.5 87t67.5 81t66.5 61q215 154 391.5 191.5t311.5 -7.5t229 -157.5t146.5 -260t61.5 -314.5t-24.5 -322.5t-112.5 -282.5t-202 -195q-162 -88 -316.5 -96t-286.5 46t-234.5 163.5t-163 254t-70.5 316.5zM81 904.5 q-13 -154.5 26.5 -310.5t129 -276.5t223.5 -190t306 -53.5q176 6 298 95t190.5 224t86 299t-13.5 319.5t-108.5 285.5t-198.5 199t-284 58.5t-365 -137.5q-135 -84 -206 -221t-84 -291.5zM460 1719q-7 17 3 40q25 37 59.5 81t68.5 84t58.5 68.5t28.5 32.5q23 33 49.5 31 t40.5 -31q2 0 29.5 -31.5t63.5 -72.5l72 -82t54 -59q10 -27 -5 -44.5t-44 5.5q-29 31 -62.5 65.5t-63.5 66.5t-52.5 56.5t-30.5 32.5q-4 2 -20.5 -16.5t-39 -46t-49 -60.5t-51 -61.5t-45 -48t-28.5 -21.5q-29 -6 -36 11z" />
<glyph unicode="&#xd5;" horiz-adv-x="1513" d="M2 770q-10 172 43 354q10 37 35.5 81t57.5 87t67.5 81t66.5 61q215 154 391.5 191.5t311.5 -7.5t229 -157.5t146.5 -260t61.5 -314.5t-24.5 -322.5t-112.5 -282.5t-202 -195q-162 -88 -316.5 -96t-286.5 46t-234.5 163.5t-163 254t-70.5 316.5zM81 904.5 q-13 -154.5 26.5 -310.5t129 -276.5t223.5 -190t306 -53.5q176 6 298 95t190.5 224t86 299t-13.5 319.5t-108.5 285.5t-198.5 199t-284 58.5t-365 -137.5q-135 -84 -206 -221t-84 -291.5zM442 1778q45 98 83 149t72 67.5t65.5 3.5t60.5 -43t57.5 -69t59.5 -76 q14 -18 40.5 -4.5t51 43t44 64.5t19.5 59q2 14 13.5 23.5t23.5 10.5t22.5 -6t10.5 -26q-2 -47 -30.5 -100t-66.5 -93t-80 -57.5t-71 7.5q-25 23 -47 55.5t-45 63t-45.5 51t-47 17.5t-53 -38t-61.5 -115q-4 -16 -16.5 -23t-26.5 -5t-24.5 12t-8.5 29z" />
<glyph unicode="&#xd6;" horiz-adv-x="1513" d="M2 770q-10 172 43 354q10 37 35.5 81t57.5 87t67.5 81t66.5 61q215 154 391.5 191.5t311.5 -7.5t229 -157.5t146.5 -260t61.5 -314.5t-24.5 -322.5t-112.5 -282.5t-202 -195q-162 -88 -316.5 -96t-286.5 46t-234.5 163.5t-163 254t-70.5 316.5zM81 904.5 q-13 -154.5 26.5 -310.5t129 -276.5t223.5 -190t306 -53.5q176 6 298 95t190.5 224t86 299t-13.5 319.5t-108.5 285.5t-198.5 199t-284 58.5t-365 -137.5q-135 -84 -206 -221t-84 -291.5zM545 1825v8q6 37 37 47q2 0 14 1t14 1q31 0 34 -27.5t-11 -44.5q-6 -10 -25.5 -17 t-32.5 -11h-2q-14 4 -19 17t-9 26zM612 1872l2 -2v2h-2zM791 1825v8q6 37 36 47q2 0 14.5 1t14.5 1q31 0 34 -27.5t-11 -44.5q-6 -10 -25.5 -17t-32.5 -11h-2q-14 4 -19 17t-9 26zM858 1872l2 -2v2h-2z" />
<glyph unicode="&#xd7;" horiz-adv-x="559" d="M13 973.5q3 15.5 12.5 26t23.5 12.5t29 -11l201 -202l38 47q23 29 45.5 57.5t45.5 57.5l16 16q4 14 15.5 25.5t23.5 14.5t21.5 -5t9.5 -29q-4 -23 -22.5 -52.5t-44.5 -62t-53.5 -63.5t-47.5 -53q41 -43 80.5 -87t80.5 -87l2 -3l-2 -2q4 -12 1 -25t-11 -22.5t-19.5 -13.5 t-23.5 4q-2 0 -2 1t-2 1v2l-12 12l-4 5q-35 39 -70 76.5t-72 74.5l-159 -207v-2l-4 -4q-14 -14 -27.5 -15t-21 6t-9.5 20.5t8 29.5l2 2v2q43 53 84 106.5t82 106.5l-207 211q-10 14 -7 29.5z" />
<glyph unicode="&#xd8;" horiz-adv-x="1513" d="M2 770q-10 172 43 354q10 37 35.5 81t57.5 87t67.5 81t66.5 61q215 154 391.5 191.5t311.5 -7.5t229 -157.5t146.5 -260t61.5 -314.5t-24.5 -322.5t-112.5 -282.5t-202 -195q-162 -88 -316.5 -96t-286.5 46t-234.5 163.5t-163 254t-70.5 316.5zM81 904.5 q-13 -154.5 26.5 -310.5t129 -276.5t223.5 -190t306 -53.5q176 6 298 95t190.5 224t86 299t-13.5 319.5t-108.5 285.5t-198.5 199t-284 58.5t-365 -137.5q-135 -84 -206 -221t-84 -291.5zM209 -115q-4 -8 23.5 45.5t417.5 814t429 845.5t49 120q8 18 21.5 26.5t25 6.5 t18.5 -13.5t21 -31.5q-41 -74 -479 -934t-465 -916q-35 -23 -55 -10.5t-6 47.5z" />
<glyph unicode="&#xd9;" horiz-adv-x="1263" d="M13.5 1294q3.5 166 13.5 342q4 16 16 28.5t24.5 15.5t21.5 -5t9 -30q-8 -152 -8 -325t11.5 -345t33 -332t58.5 -287q14 -49 40.5 -96t64.5 -85t86 -63.5t105 -29.5q72 -6 152 10.5t152.5 53t132 91t92.5 121.5q55 119 73.5 265.5t17.5 302t-15.5 311.5t-26.5 293 q2 12 12.5 24.5t20.5 17.5t21.5 1t17.5 -23q14 -164 30.5 -318.5t18.5 -304t-20.5 -297t-84.5 -296.5q-35 -82 -103.5 -146.5t-154.5 -108.5t-179 -66.5t-175 -18.5q-59 2 -114.5 32.5t-101.5 77t-80 100.5t-48 105q-47 172 -72.5 334t-35 323.5t-6 327.5zM345.5 1960 q14.5 27 43.5 27q2 0 31 -14.5t70.5 -36t90 -46t89.5 -47t68.5 -37t29.5 -16.5q18 -6 21.5 -20.5t-3 -26.5t-19.5 -21.5t-30 -5.5q-6 4 -34.5 20.5t-69.5 38t-87 46t-86 45t-69 34t-33 13.5q-27 20 -12.5 47z" />
<glyph unicode="&#xda;" horiz-adv-x="1263" d="M13.5 1294q-3.5 -166 6 -327.5t35 -323.5t72.5 -334q14 -51 48 -105t80 -100.5t101.5 -77t114.5 -32.5q82 -4 175 18.5t179 66.5t155 108.5t103 146.5q61 150 84 297t21 296.5t-18.5 304t-30.5 318.5q-6 18 -17.5 22.5t-21.5 -0.5t-20.5 -17.5t-12.5 -24.5 q12 -137 26.5 -293t15.5 -311.5t-17.5 -302t-73.5 -265.5q-33 -68 -92.5 -122t-132 -90.5t-152.5 -53t-152 -10.5q-57 4 -105 29.5t-86 63.5t-64.5 85t-40.5 96q-37 127 -58.5 287t-33 332t-11.5 345t8 325q0 23 -9 30.5t-21.5 4.5t-24.5 -15.5t-16 -28.5 q-10 -176 -13.5 -342zM427 1769.5q3 14.5 22 20.5q2 2 29.5 16.5t68.5 37t89 47t90 46t70.5 36t30.5 14.5q29 0 43.5 -27t-12.5 -47q-6 0 -33.5 -13.5t-67.5 -34t-86 -45t-87 -46t-70 -38t-35 -20.5q-16 -4 -29.5 5.5t-19.5 21.5t-3 26.5z" />
<glyph unicode="&#xdb;" horiz-adv-x="1263" d="M13.5 1294q3.5 166 13.5 342q4 16 16 28.5t24.5 15.5t21.5 -5t9 -30q-8 -152 -8 -325t11.5 -345t33 -332t58.5 -287q14 -49 40.5 -96t64.5 -85t86 -63.5t105 -29.5q72 -6 152 10.5t152.5 53t132 91t92.5 121.5q55 119 73.5 265.5t17.5 302t-15.5 311.5t-26.5 293 q2 12 12.5 24.5t20.5 17.5t21.5 1t17.5 -23q14 -164 30.5 -318.5t18.5 -304t-20.5 -297t-84.5 -296.5q-35 -82 -103.5 -146.5t-154.5 -108.5t-179 -66.5t-175 -18.5q-59 2 -114.5 32.5t-101.5 77t-80 100.5t-48 105q-47 172 -72.5 334t-35 323.5t-6 327.5zM306 1719 q-7 17 3 40q25 37 59.5 81t68.5 84t58.5 68.5t28.5 32.5q23 33 49.5 31t40.5 -31q2 0 30 -31.5t63.5 -72.5t71.5 -82t55 -59q10 -27 -5.5 -44.5t-44.5 5.5q-29 31 -62.5 65.5t-63 66.5t-52 56.5t-31.5 32.5q-4 2 -19 -16.5t-38.5 -46t-50.5 -60.5t-51.5 -61.5t-45 -48 t-28.5 -21.5q-29 -6 -36 11z" />
<glyph unicode="&#xdc;" horiz-adv-x="1263" d="M13.5 1294q3.5 166 13.5 342q4 16 16 28.5t24.5 15.5t21.5 -5t9 -30q-8 -152 -8 -325t11.5 -345t33 -332t58.5 -287q14 -49 40.5 -96t64.5 -85t86 -63.5t105 -29.5q72 -6 152 10.5t152.5 53t132 91t92.5 121.5q55 119 73.5 265.5t17.5 302t-15.5 311.5t-26.5 293 q2 12 12.5 24.5t20.5 17.5t21.5 1t17.5 -23q14 -164 30.5 -318.5t18.5 -304t-20.5 -297t-84.5 -296.5q-35 -82 -103.5 -146.5t-154.5 -108.5t-179 -66.5t-175 -18.5q-59 2 -114.5 32.5t-101.5 77t-80 100.5t-48 105q-47 172 -72.5 334t-35 323.5t-6 327.5zM434 1825v8 q6 37 37 47q2 0 14.5 1t14.5 1q31 0 34 -27.5t-12 -44.5q-6 -10 -25.5 -17t-31.5 -11h-2q-14 4 -19.5 17t-9.5 26zM502 1872l2 -2v2h-2zM680 1825v8q6 37 37 47q2 0 14 1t14 1q31 0 34 -27.5t-11 -44.5q-6 -10 -25.5 -17t-31.5 -11h-2q-14 4 -19.5 17t-9.5 26zM748 1872 l2 -2v2h-2z" />
<glyph unicode="&#xdd;" horiz-adv-x="1249" d="M-2 1573q61 -113 140 -245t155 -261t140.5 -240.5t96.5 -181.5q6 -84 8.5 -160.5t2.5 -151.5v-151t2 -157q6 -20 18 -26.5t25.5 -3.5t24 15.5t10.5 28.5q-2 156 -5.5 306.5t-5.5 303.5q12 20 49 76.5t88.5 136.5t114 175.5t128 195.5t129 199.5t116.5 183.5q8 18 4 32.5 t-16.5 20.5t-29 3t-28.5 -19q-74 -115 -159.5 -251t-167.5 -265t-151 -237.5t-112 -172.5q-133 219 -249.5 435t-249.5 435q-6 18 -18.5 21.5t-25 -2.5t-22.5 -18.5t-12 -24.5zM427 1769.5q3 14.5 22 20.5q2 2 29.5 16.5t68.5 37t89 47t90 46t70.5 36t30.5 14.5 q29 0 43.5 -27t-12.5 -47q-6 0 -33.5 -13.5t-67.5 -34t-86 -45t-87 -46t-70 -38t-35 -20.5q-16 -4 -29.5 5.5t-19.5 21.5t-3 26.5z" />
<glyph unicode="&#xde;" horiz-adv-x="935" d="M82 1653q2 16 14.5 28.5t24.5 16.5t22.5 -3t10.5 -30v-455q193 55 332 45t227 -63t127 -137t31.5 -172t-57.5 -170t-141 -133.5t-221 -57.5t-296 56l2 -711q0 -41 -17.5 -44t-44.5 13q-2 4 -4 16.5t-3 58.5t-2 228.5t-2 347t-2 414.5t-1 752zM154 1137l2 -482 q145 -59 260.5 -58t195.5 40t126 106.5t52.5 140t-28.5 141.5t-113 112t-200.5 48t-294.5 -48z" />
<glyph unicode="&#xdf;" horiz-adv-x="980" d="M15 876.5q-3 118.5 6.5 237.5t45 219.5t104.5 171t181 92.5q61 10 135 4t141.5 -33.5t117 -79.5t61.5 -132q25 -176 -31.5 -324.5t-161.5 -279.5q37 4 80 -12.5t84 -44t74 -60.5t51 -60q18 -29 22.5 -54t8.5 -60q18 -86 -12.5 -158t-91 -130t-140.5 -99t-162 -64.5 t-155.5 -29t-120.5 11.5q-4 -23 -7 -9.5t-1 36t12 40t35 4.5q80 -14 179 2.5t187 63.5t147.5 124t59.5 183q0 51 -29.5 98.5t-74.5 81t-98.5 47t-100.5 -0.5q-29 -16 -55 -27q-33 -6 -37 17.5t12 43.5q49 55 95.5 121t82 138.5t57 150.5t25.5 156q4 88 -47 153.5t-130 96 t-171 21.5t-168 -69q-45 -35 -70.5 -84t-38 -105t-16.5 -114.5t-8 -111.5q-10 -141 2 -279.5t21 -280.5q8 -119 7 -235.5t-1 -235.5v-8v-2q-4 -12 -8 -20l-4 -8q-10 -10 -22.5 -15.5t-23.5 0.5l-4 4q-6 7 -10 21q0 121 2 238.5t-6 236.5q-6 78 -16.5 185.5t-13.5 226z" />
<glyph unicode="&#xe0;" horiz-adv-x="659" d="M-6 289q-2 41 5 99t22.5 122.5t40 128t57.5 116t76 89.5t96 45q55 8 87 -2t53.5 -29.5t38.5 -43t46 -40.5q12 23 34.5 30t33.5 -22q4 -78 7 -164t6 -175t5 -176t6 -165q6 -10 6 -24q0 -12 -1 -24.5t-1 -24.5q-8 -27 -32.5 -38t-36.5 17h-2v8l-13 291q-10 -31 -24.5 -60.5 t-32.5 -58.5q-16 -23 -47 -56.5t-69 -65t-77.5 -54t-72.5 -22.5q-61 0 -102.5 26.5t-65 69.5t-32.5 96.5t-11 106.5zM63.5 283.5q4.5 -58.5 20.5 -109.5q8 -18 19.5 -38.5t27.5 -37t37.5 -26t46.5 -2.5q84 23 139.5 77t89 125.5t48 151.5t14.5 154q0 12 -2 45.5t-2 70.5 q-25 10 -44.5 30.5t-39 40t-42 35t-50.5 17.5q-37 2 -69 -18.5t-58.5 -51t-45 -65.5t-30.5 -61q-20 -49 -35.5 -105.5t-22 -115t-2 -117zM114.5 1339q14.5 27 43.5 27q2 0 30.5 -14.5t70.5 -36t90 -46t89 -47t69 -37t30 -16.5q18 -6 21 -20t-3 -26.5t-19.5 -21.5t-29.5 -5 q-6 4 -35 20.5t-70 38t-87 46t-86 45t-68.5 33.5t-32.5 13q-27 20 -12.5 47z" />
<glyph unicode="&#xe1;" horiz-adv-x="659" d="M-6 289q-2 41 5 99t22.5 122.5t40 128t57.5 116t76 89.5t96 45q55 8 87 -2t53.5 -29.5t38.5 -43t46 -40.5q12 23 34.5 30t33.5 -22q4 -78 7 -164t6 -175t5 -176t6 -165q6 -10 6 -24q0 -12 -1 -24.5t-1 -24.5q-8 -27 -32.5 -38t-36.5 17h-2v4v4l-13 291 q-10 -31 -24.5 -60.5t-32.5 -58.5q-16 -23 -47 -56.5t-69 -65t-77.5 -54t-72.5 -22.5q-61 0 -102.5 26.5t-65 69.5t-32.5 96.5t-11 106.5zM63.5 283.5q4.5 -58.5 20.5 -109.5q8 -18 19.5 -38.5t27.5 -37t37.5 -26t46.5 -2.5q84 23 139.5 77t89 125.5t48 151.5t14.5 154 q0 12 -2 45.5t-2 70.5q-25 10 -44.5 30.5t-39 40t-42 35t-50.5 17.5q-37 2 -69 -18.5t-58.5 -51t-45 -65.5t-30.5 -61q-20 -49 -35.5 -105.5t-22 -115t-2 -117zM118 1149q3 14 21 20q2 2 30 16.5t69 37t89 47t90 46t70.5 36t30.5 14.5q29 0 43.5 -27t-12.5 -47q-6 0 -34 -13 t-67.5 -33.5t-86 -45t-87.5 -46t-69.5 -38t-34.5 -20.5q-16 -4 -29.5 5t-19.5 21.5t-3 26.5z" />
<glyph unicode="&#xe2;" horiz-adv-x="659" d="M-6 289q-2 41 5 99t22.5 122.5t40 128t57.5 116t76 89.5t96 45q55 8 87 -2t53.5 -29.5t38.5 -43t46 -40.5q12 23 34.5 30t33.5 -22q4 -78 7 -164t6 -175t5 -176t6 -165q6 -10 6 -24q0 -12 -1 -24.5t-1 -24.5q-8 -27 -32.5 -38t-36.5 17h-2v8l-13 291q-10 -31 -24.5 -60.5 t-32.5 -58.5q-16 -23 -47 -56.5t-69 -65t-77.5 -54t-72.5 -22.5q-61 0 -102.5 26.5t-65 69.5t-32.5 96.5t-11 106.5zM63.5 283.5q4.5 -58.5 20.5 -109.5q8 -18 19.5 -38.5t27.5 -37t37.5 -26t46.5 -2.5q84 23 139.5 77t89 125.5t48 151.5t14.5 154q0 12 -2 45.5t-2 70.5 q-25 10 -44.5 30.5t-39 40t-42 35t-50.5 17.5q-37 2 -69 -18.5t-58.5 -51t-45 -65.5t-30.5 -61q-20 -49 -35.5 -105.5t-22 -115t-2 -117zM68.5 1060q-6.5 17 3.5 40q25 37 59.5 81t68 84t58.5 68.5t29 32.5q23 33 49 31t41 -31q2 0 29.5 -31.5t63.5 -72.5l72 -82t54 -60 q10 -27 -5.5 -44t-43.5 5q-29 31 -62.5 66t-63.5 66.5t-52.5 56t-30.5 33.5q-4 2 -19.5 -16.5t-39 -46.5t-50 -60.5t-51 -61t-45 -48t-29.5 -21.5q-29 -6 -35.5 11z" />
<glyph unicode="&#xe3;" horiz-adv-x="659" d="M-6 289q-2 41 5 99t22.5 122.5t40 128t57.5 116t76 89.5t96 45q55 8 87 -2t53.5 -29.5t38.5 -43t46 -40.5q12 23 34.5 30t33.5 -22q4 -78 7 -164t6 -175t5 -176t6 -165q6 -10 6 -24q0 -12 -1 -24.5t-1 -24.5q-8 -27 -32.5 -38t-36.5 17h-2v4v4l-13 291 q-10 -31 -24.5 -60.5t-32.5 -58.5q-16 -23 -47 -56.5t-69 -65t-77.5 -54t-72.5 -22.5q-61 0 -102.5 26.5t-65 69.5t-32.5 96.5t-11 106.5zM12 1110q45 98 83 149.5t72 67.5t65.5 3t60.5 -43t57.5 -68.5t59.5 -75.5q14 -18 40.5 -5t51 42.5t44 64.5t19.5 60q2 14 13.5 23 t23.5 10t22.5 -6t10.5 -25q-2 -47 -31 -100.5t-66.5 -93.5t-79.5 -57.5t-71 7.5q-25 23 -47.5 55.5t-45 63t-45 51t-47 17.5t-53 -37.5t-61.5 -114.5q-4 -16 -16.5 -23.5t-26.5 -5.5t-24.5 12.5t-8.5 28.5zM63.5 283.5q4.5 -58.5 20.5 -109.5q8 -18 19.5 -38.5t27.5 -37 t37.5 -26t46.5 -2.5q84 23 139.5 77t89 125.5t48 151.5t14.5 154q0 12 -2 45.5t-2 70.5q-25 10 -44.5 30.5t-39 40t-42 35t-50.5 17.5q-37 2 -69 -18.5t-58.5 -51t-45 -65.5t-30.5 -61q-20 -49 -35.5 -105.5t-22 -115t-2 -117z" />
<glyph unicode="&#xe4;" horiz-adv-x="659" d="M-6 289q-2 41 5 99t22.5 122.5t40 128t57.5 116t76 89.5t96 45q55 8 87 -2t53.5 -29.5t38.5 -43t46 -40.5q12 23 34.5 30t33.5 -22q4 -78 7 -164t6 -175t5 -176t6 -165q6 -10 6 -24q0 -12 -1 -24.5t-1 -24.5q-8 -27 -32.5 -38t-36.5 17h-2v4v4l-13 291 q-10 -31 -24.5 -60.5t-32.5 -58.5q-16 -23 -47 -56.5t-69 -65t-77.5 -54t-72.5 -22.5q-61 0 -102.5 26.5t-65 69.5t-32.5 96.5t-11 106.5zM63.5 283.5q4.5 -58.5 20.5 -109.5q8 -18 19.5 -38.5t27.5 -37t37.5 -26t46.5 -2.5q84 23 139.5 77t89 125.5t48 151.5t14.5 154 q0 12 -2 45.5t-2 70.5q-25 10 -44.5 30.5t-39 40t-42 35t-50.5 17.5q-37 2 -69 -18.5t-58.5 -51t-45 -65.5t-30.5 -61q-20 -49 -35.5 -105.5t-22 -115t-2 -117zM143 1204v8q6 37 37 48q2 0 14.5 1t14.5 1q31 0 34 -28t-12 -44q-6 -10 -25.5 -17.5t-31.5 -11.5h-2 q-14 4 -19.5 17.5t-9.5 25.5zM211 1251l2 -2v2h-2zM389 1204v8q6 37 37 48q2 0 14.5 1t14.5 1q31 0 34 -28t-12 -44q-6 -10 -25.5 -17.5t-31.5 -11.5h-2q-14 4 -19.5 17.5t-9.5 25.5zM457 1251l2 -2v2h-2z" />
<glyph unicode="&#xe5;" horiz-adv-x="659" d="M-6 289q-2 41 5 99t22.5 122.5t40 128t57.5 116t76 89.5t96 45q55 8 87 -2t53.5 -29.5t38.5 -43t46 -40.5q12 23 34.5 30t33.5 -22q4 -78 7 -164t6 -175t5 -176t6 -165q6 -10 6 -24q0 -12 -1 -24.5t-1 -24.5q-8 -27 -32.5 -38t-36.5 17h-2v8l-13 291q-10 -31 -24.5 -60.5 t-32.5 -58.5q-16 -23 -47 -56.5t-69 -65t-77.5 -54t-72.5 -22.5q-61 0 -102.5 26.5t-65 69.5t-32.5 96.5t-11 106.5zM63.5 283.5q4.5 -58.5 20.5 -109.5q8 -18 19.5 -38.5t27.5 -37t37.5 -26t46.5 -2.5q84 23 139.5 77t89 125.5t48 151.5t14.5 154q0 12 -2 45.5t-2 70.5 q-25 10 -44.5 30.5t-39 40t-42 35t-50.5 17.5q-37 2 -69 -18.5t-58.5 -51t-45 -65.5t-30.5 -61q-20 -49 -35.5 -105.5t-22 -115t-2 -117zM124 1205.5q15 58.5 59 104.5t102.5 65.5t105.5 -11.5q39 -29 63.5 -55.5t32.5 -67.5q10 -57 -28.5 -99t-97 -61.5t-119 -15.5 t-92.5 39q-41 43 -26 101.5zM189.5 1197q-7.5 -28 11.5 -44q16 -16 52 -19.5t71.5 5t63.5 27.5t28 48q0 27 -19.5 60t-72.5 43q-27 0 -55.5 -19.5t-50 -46t-29 -54.5z" />
<glyph unicode="&#xe6;" horiz-adv-x="1214" d="M-6 289q-2 41 5 99t22.5 122.5t40 128t57.5 116t76 89.5t96 45q55 8 87 -2t53.5 -29.5t38.5 -43t46 -40.5q12 23 34.5 30t33.5 -22v-45q12 23 28 41q31 41 78 68q41 23 90 23.5t97.5 -15.5t90.5 -47t65.5 -69t24.5 -82t-32 -87t-86 -66.5t-113.5 -35.5t-121 -16.5 t-109.5 -8.5q2 -47 2 -94q6 -41 14 -80q20 -84 66 -147q39 -55 103.5 -65.5t129 10t118.5 62.5t77 89q10 14 22.5 18.5t22.5 1t14 -14.5t0 -29q-39 -78 -103.5 -132.5t-140 -76t-154.5 -4t-144 80.5l-9 9q0 -8 -2 -17v-24q-8 -27 -32.5 -38t-36.5 17h-2v8l-13 291 q-10 -31 -24.5 -60.5t-32.5 -58.5q-16 -23 -47 -56.5t-69 -65t-77.5 -54t-72.5 -22.5q-61 0 -102.5 26.5t-65 69.5t-32.5 96.5t-11 106.5zM63.5 283.5q4.5 -58.5 20.5 -109.5q8 -18 19.5 -38.5t27.5 -37t37.5 -26t46.5 -2.5q84 23 139.5 77t89 125.5t48 151.5t14.5 154 q0 12 -2 45.5t-2 70.5q-25 10 -44.5 30.5t-39 40t-42 35t-50.5 17.5q-37 2 -69 -18.5t-58.5 -51t-45 -65.5t-30.5 -61q-20 -49 -35.5 -105.5t-22 -115t-2 -117zM598 518q59 6 135 9t133 20q31 8 54.5 28.5t50.5 36.5q2 16 7 31.5t1 32.5q-16 55 -64.5 83.5t-103.5 30 t-105.5 -25.5t-70.5 -82q-27 -74 -37 -164z" />
<glyph unicode="&#xe7;" horiz-adv-x="782" d="M4 424q0 106 26.5 198.5t70.5 161t100.5 107.5t118 37t124 -50.5t115.5 -150.5q-18 -43 -30.5 -49t-23.5 -1t-18 25q-80 106 -148.5 130t-120.5 -8.5t-86 -109.5t-44 -169t3 -186.5t56 -164t116 -101.5t181 3q63 20 117.5 61.5t108.5 78.5q18 6 28.5 0.5t13.5 -16.5 t-1 -24.5t-17 -23.5q-92 -66 -152.5 -105.5t-105.5 -60.5q-25 -10 -47 -14q2 -47 1 -97.5t-5 -87.5q45 0 104.5 -4t113.5 -19t95 -46t47 -80q-2 -14 -16 -29q-35 -29 -102.5 -41t-143 -18t-146.5 -7t-110 -3q-16 2 -28.5 13t-16.5 23.5t2 23.5t29 13q4 0 37 2.5t81 5.5 t104.5 7t105.5 10t85 12t42 15q-23 18 -65 28.5t-88 14.5t-90 4t-73 -2q-45 6 -49 49q10 43 13 99t1 108l-32 4q-70 12 -122 65.5t-88 121t-53.5 136t-17.5 111.5z" />
<glyph unicode="&#xe8;" horiz-adv-x="661" d="M-2 453q-6 12 0 26q0 55 7 108.5t24.5 102.5t48.5 89t78 67q41 23 90 23.5t97 -15.5t90 -47t65.5 -69t25 -82t-31.5 -87t-86.5 -66.5t-114 -35.5t-120.5 -16.5t-110 -8.5q-2 -88 17.5 -173t64.5 -148q39 -55 103.5 -65.5t129 10t119 62.5t76.5 89q10 14 22.5 18.5t23 1 t14.5 -14.5t0 -29q-39 -78 -103.5 -132.5t-140.5 -76t-154.5 -4t-144.5 80.5q-31 31 -48 80t-26.5 104.5t-11.5 111t-4 96.5zM63 518q59 6 135 9t134 20q31 8 54.5 28.5t49.5 36.5q2 16 7.5 31.5t0.5 32.5q-16 55 -64 83.5t-103.5 30t-106 -25.5t-70.5 -82q-27 -74 -37 -164 zM83.5 1339q14.5 27 43.5 27q2 0 30.5 -14.5t70.5 -36t90.5 -46t89.5 -47t68.5 -37t29.5 -16.5q18 -6 21 -20t-3 -26.5t-19 -21.5t-30 -5q-6 4 -34.5 20.5t-69.5 38t-87 46t-86 45t-69 33.5t-33 13q-27 20 -12.5 47z" />
<glyph unicode="&#xe9;" horiz-adv-x="661" d="M-2 453q-6 12 0 26q0 55 7 108.5t24.5 102.5t48.5 89t78 67q41 23 90 23.5t97 -15.5t90 -47t65.5 -69t25 -82t-31.5 -87t-86.5 -66.5t-114 -35.5t-120.5 -16.5t-110 -8.5q-2 -88 17.5 -173t64.5 -148q39 -55 103.5 -65.5t129 10t119 62.5t76.5 89q10 14 22.5 18.5t23 1 t14.5 -14.5t0 -29q-39 -78 -103.5 -132.5t-140.5 -76t-154.5 -4t-144.5 80.5q-31 31 -48 80t-26.5 104.5t-11.5 111t-4 96.5zM63 518q59 6 135 9t134 20q31 8 54.5 28.5t49.5 36.5q2 16 7.5 31.5t0.5 32.5q-16 55 -64 83.5t-103.5 30t-106 -25.5t-70.5 -82q-27 -74 -37 -164 zM64.5 1149q3.5 14 21.5 20q2 2 29.5 16.5t68.5 37t89.5 47t90.5 46t70.5 36t30.5 14.5q29 0 43.5 -27t-12.5 -47q-6 0 -34 -13t-68 -33.5t-86 -45t-87 -46t-69.5 -38t-34.5 -20.5q-16 -4 -29.5 5t-20 21.5t-3 26.5z" />
<glyph unicode="&#xea;" horiz-adv-x="661" d="M-2 453q-6 12 0 26q0 55 7 108.5t24.5 102.5t48.5 89t78 67q41 23 90 23.5t97 -15.5t90 -47t65.5 -69t25 -82t-31.5 -87t-86.5 -66.5t-114 -35.5t-120.5 -16.5t-110 -8.5q-2 -88 17.5 -173t64.5 -148q39 -55 103.5 -65.5t129 10t119 62.5t76.5 89q10 14 22.5 18.5t23 1 t14.5 -14.5t0 -29q-39 -78 -103.5 -132.5t-140.5 -76t-154.5 -4t-144.5 80.5q-31 31 -48 80t-26.5 104.5t-11.5 111t-4 96.5zM21.5 1060q-6.5 17 3.5 40q25 37 59.5 81t68 84t58.5 68.5t29 32.5q23 33 49 31t41 -31q2 0 29.5 -31.5t63.5 -72.5t71.5 -82t54.5 -60 q10 -27 -5.5 -44t-43.5 5q-29 31 -63 66t-63.5 66.5t-52 56t-30.5 33.5q-4 2 -19.5 -16.5t-39 -46.5t-50 -60.5t-51.5 -61t-45 -48t-29 -21.5q-29 -6 -35.5 11zM63 518q59 6 135 9t134 20q31 8 54.5 28.5t49.5 36.5q2 16 7.5 31.5t0.5 32.5q-16 55 -64 83.5t-103.5 30 t-106 -25.5t-70.5 -82q-27 -74 -37 -164z" />
<glyph unicode="&#xeb;" horiz-adv-x="661" d="M-2 453q-6 12 0 26q0 55 7 108.5t24.5 102.5t48.5 89t78 67q41 23 90 23.5t97 -15.5t90 -47t65.5 -69t25 -82t-31.5 -87t-86.5 -66.5t-114 -35.5t-120.5 -16.5t-110 -8.5q-2 -88 17.5 -173t64.5 -148q39 -55 103.5 -65.5t129 10t119 62.5t76.5 89q10 14 22.5 18.5t23 1 t14.5 -14.5t0 -29q-39 -78 -103.5 -132.5t-140.5 -76t-154.5 -4t-144.5 80.5q-31 31 -48 80t-26.5 104.5t-11.5 111t-4 96.5zM63 518q59 6 135 9t134 20q31 8 54.5 28.5t49.5 36.5q2 16 7.5 31.5t0.5 32.5q-16 55 -64 83.5t-103.5 30t-106 -25.5t-70.5 -82q-27 -74 -37 -164 zM123 1204v8q6 37 37 48q2 0 14 1t14 1q31 0 34 -28t-11 -44q-6 -10 -25.5 -17.5t-31.5 -11.5h-2q-14 4 -19.5 17.5t-9.5 25.5zM190 1251l3 -2v2h-3zM369 1204v8q6 37 37 48q2 0 14 1t14 1q31 0 34 -28t-11 -44q-6 -10 -25.5 -17.5t-32.5 -11.5h-2q-14 4 -19 17.5t-9 25.5z M436 1251l2 -2v2h-2z" />
<glyph unicode="&#xec;" horiz-adv-x="487" d="M14.5 1339q14.5 27 42.5 27q2 0 31 -14.5t71 -36t90 -46t89 -47t68.5 -37t29.5 -16.5q18 -6 21.5 -20t-2.5 -26.5t-19.5 -21.5t-29.5 -5q-6 4 -35 20.5t-70 38t-87 46t-86 45t-68.5 33.5t-32.5 13q-27 20 -12.5 47zM203 788q2 12 11 24.5t20.5 19t22.5 3t17 -21.5 q8 -186 29 -370.5t55 -366.5q14 -10 9 -39q0 -2 -5 -10q-12 -25 -34.5 -28t-32.5 28q-41 186 -61.5 378.5t-30.5 382.5z" />
<glyph unicode="&#xed;" horiz-adv-x="458" d="M11 1149q3 14 22 20q2 2 29.5 16.5t68.5 37t89 47t90 46t71 36t31 14.5q29 0 43 -27t-13 -47q-6 0 -33.5 -13t-67.5 -33.5t-86 -45t-87 -46t-69.5 -38t-35.5 -20.5q-16 -4 -29.5 5t-19.5 21.5t-3 26.5zM203 788q2 12 11 24.5t20.5 19t22.5 3t17 -21.5q8 -186 29 -370.5 t55 -366.5q14 -10 9 -39q0 -2 -5 -10q-12 -25 -34.5 -28t-32.5 28q-41 186 -61.5 378.5t-30.5 382.5z" />
<glyph unicode="&#xee;" horiz-adv-x="589" d="M21.5 1060q-6.5 17 3.5 40q25 37 59.5 81t68 84t58.5 68.5t29 32.5q23 33 49 31t41 -31q2 0 29.5 -31.5t63.5 -72.5t71.5 -82t54.5 -60q10 -27 -5.5 -44t-43.5 5q-29 31 -63 66t-63.5 66.5t-52 56t-30.5 33.5q-4 2 -19.5 -16.5t-39 -46.5t-50 -60.5t-51.5 -61t-45 -48 t-29 -21.5q-29 -6 -35.5 11zM244 788q2 12 11 24.5t20.5 19t22.5 3t17 -21.5q8 -186 29 -370.5t55 -366.5q14 -10 9 -39q0 -2 -5 -10q-12 -25 -34.5 -28t-32.5 28q-41 186 -61.5 378.5t-30.5 382.5z" />
<glyph unicode="&#xef;" horiz-adv-x="362" d="M14 1204v8q6 37 37 48q2 0 14.5 1t14.5 1q31 0 34 -28t-12 -44q-6 -10 -25.5 -17.5t-31.5 -11.5h-2q-14 4 -19.5 17.5t-9.5 25.5zM82 1251l2 -2v2h-2zM143 788q2 12 11.5 24.5t20.5 19t22.5 3t17.5 -21.5q8 -186 28.5 -370.5t55.5 -366.5q14 -10 8 -39q0 -2 -4 -10 q-12 -25 -34.5 -28t-32.5 28q-41 186 -62 378.5t-31 382.5zM260 1204v8q6 37 37 48q2 0 14.5 1t14.5 1q31 0 33.5 -28t-11.5 -44q-6 -10 -25.5 -17.5t-31.5 -11.5h-2q-14 4 -19.5 17.5t-9.5 25.5zM328 1251l2 -2v2h-2z" />
<glyph unicode="&#xf0;" horiz-adv-x="796" d="M23 440q14 55 66 110.5t122 99.5t145.5 72t139.5 30q-25 39 -51.5 78.5t-55.5 78.5q-31 -20 -62.5 -37.5t-66.5 -33.5q-33 -4 -36.5 19.5t12.5 43.5q25 18 53 30.5t59 31.5q-74 92 -152.5 167.5t-156.5 122.5q-27 20 -12.5 47t43.5 27q18 -4 24 -14q92 -59 172 -142.5 t148 -169.5q41 25 81 49.5t83 43.5q20 8 30 0.5t11.5 -20.5t-6 -27.5t-21.5 -22.5q-35 -16 -69 -34.5t-68 -39.5q53 -70 99 -142.5t85 -150.5q29 -57 55.5 -125.5t34.5 -134.5q8 -53 2 -108.5t-29.5 -106.5t-61.5 -92t-93 -63q-88 -31 -192.5 -9.5t-188.5 81t-129 148.5 t-14 193zM84 328q14 -49 50 -91t87 -76t107.5 -53.5t111 -22.5t95.5 15q59 27 88.5 72t37 97.5t-2 108.5t-27.5 105q-16 45 -41 96.5t-55 104.5q-2 0 -2.5 -1t-2.5 -1q-57 2 -125.5 -19.5t-132 -58.5t-113.5 -83t-69 -95q-20 -49 -6 -98z" />
<glyph unicode="&#xf1;" horiz-adv-x="776" d="M20 831q2 14 13.5 26.5t24 18t22.5 0t12 -23.5v-8q0 -96 1 -190.5t3 -190.5q12 41 28.5 85t37 84t42 73.5t46.5 58.5q61 61 110.5 83.5t91.5 13.5t80.5 -48t83.5 -96q25 -33 53.5 -117t45 -185.5t16.5 -202.5t-33 -171q-2 -2 -2 -6h-2q-6 -14 -18 -20.5t-23.5 -5.5 t-18.5 11.5t-3 28.5q23 63 24.5 145t-11.5 167t-36.5 165t-52.5 140q-23 45 -52.5 73.5t-65.5 36.5t-72.5 -6t-69.5 -55q-59 -72 -92 -153t-49.5 -167t-23.5 -176t-13 -176q-2 -23 -3 -40t-10 -38q-12 -25 -34.5 -28t-32.5 28q-4 31 -5 64.5t-1 68.5v68v57q-2 154 -6.5 304 t-4.5 304zM70 1110q45 98 82.5 149.5t71.5 67.5t66 3t60.5 -43t57 -68.5t59.5 -75.5q14 -18 41 -5t51.5 42.5t44 64.5t19.5 60q2 14 13 23t23.5 10t22.5 -6t10 -25q-2 -47 -30.5 -100.5t-66.5 -93.5t-80 -57.5t-71 7.5q-25 23 -47 55.5t-44.5 63t-45 51t-47 17.5 t-53.5 -37.5t-62 -114.5q-4 -16 -16 -23.5t-26.5 -5.5t-24.5 12.5t-8 28.5z" />
<glyph unicode="&#xf2;" horiz-adv-x="616" d="M1 261q-1 52 3 108.5t10 107.5t15 78q6 23 28.5 77t56 108.5t74.5 93t82 32.5q49 -12 96.5 -54t87.5 -100.5t70.5 -127t49 -135t21.5 -124t-13 -94.5q-41 -94 -124 -151t-173 -68.5t-168 27.5t-107 141q-8 29 -9 81zM67 397.5q-4 -75.5 10.5 -139t46.5 -110t82 -59.5 t119.5 11.5t157.5 102.5q27 29 27 90t-18.5 133t-51 143.5t-71.5 123.5t-79 76t-73 -3q-51 -41 -77.5 -100.5t-45.5 -120.5q-23 -72 -27 -147.5zM100.5 1339q14.5 27 42.5 27q2 0 31 -14.5t71 -36t90 -46t89 -47t68.5 -37t29.5 -16.5q18 -6 21.5 -20t-2.5 -26.5t-19.5 -21.5 t-29.5 -5q-6 4 -35 20.5t-70 38t-87 46t-86 45t-68.5 33.5t-32.5 13q-27 20 -12.5 47z" />
<glyph unicode="&#xf3;" horiz-adv-x="616" d="M1 261q-1 52 3 108.5t10 107.5t15 78q6 23 28.5 77t56 108.5t74.5 93t82 32.5q49 -12 96.5 -54t87.5 -100.5t70.5 -127t49 -135t21.5 -124t-13 -94.5q-41 -94 -124 -151t-173 -68.5t-168 27.5t-107 141q-8 29 -9 81zM67 397.5q-4 -75.5 10.5 -139t46.5 -110t82 -59.5 t119.5 11.5t157.5 102.5q27 29 27 90t-18.5 133t-51 143.5t-71.5 123.5t-79 76t-73 -3q-51 -41 -77.5 -100.5t-45.5 -120.5q-23 -72 -27 -147.5zM103 1149q3 14 22 20q2 2 29.5 16.5t68.5 37t89 47t90 46t71 36t31 14.5q29 0 43.5 -27t-12.5 -47q-6 0 -34 -13t-68 -33.5 t-86 -45t-87 -46t-69.5 -38t-34.5 -20.5q-16 -4 -29.5 5t-20 21.5t-3.5 26.5z" />
<glyph unicode="&#xf4;" horiz-adv-x="616" d="M1 261q-1 52 3 108.5t10 107.5t15 78q6 23 28.5 77t56 108.5t74.5 93t82 32.5q49 -12 96.5 -54t87.5 -100.5t70.5 -127t49 -135t21.5 -124t-13 -94.5q-41 -94 -124 -151t-173 -68.5t-168 27.5t-107 141q-8 29 -9 81zM25.5 1060q-6.5 17 3.5 40q25 37 59.5 81t68 84 t58.5 68.5t29 32.5q23 33 49 31t41 -31q2 0 29.5 -31.5t63.5 -72.5l72 -82t54 -60q10 -27 -5.5 -44t-43.5 5q-29 31 -62.5 66t-63.5 66.5t-52.5 56t-30.5 33.5q-4 2 -19.5 -16.5t-39 -46.5t-50 -60.5t-51 -61t-45 -48t-29.5 -21.5q-29 -6 -35.5 11zM67 397.5 q-4 -75.5 10.5 -139t46.5 -110t82 -59.5t119.5 11.5t157.5 102.5q27 29 27 90t-18.5 133t-51 143.5t-71.5 123.5t-79 76t-73 -3q-51 -41 -77.5 -100.5t-45.5 -120.5q-23 -72 -27 -147.5z" />
<glyph unicode="&#xf5;" horiz-adv-x="643" d="M4 1110q45 98 83 149.5t72 67.5t65.5 3t60 -43t57.5 -68.5t59 -75.5q14 -18 41 -5t51.5 42.5t44 64.5t19.5 60q2 14 13.5 23t23.5 10t22.5 -6t10.5 -25q-2 -47 -31 -100.5t-66.5 -93.5t-79.5 -57.5t-71 7.5q-25 23 -47.5 55.5t-45 63t-45 51t-47 17.5t-53 -37.5 t-61.5 -114.5q-4 -16 -16.5 -23.5t-26.5 -5.5t-24.5 12.5t-8.5 28.5zM19.5 261q-1.5 52 3 108.5t10.5 107.5t14 78q6 23 28.5 77t56.5 108.5t75 93t82 32.5q49 -12 96 -54t87 -100.5t70.5 -127t49 -135t21.5 -124t-13 -94.5q-41 -94 -124 -151t-173 -68.5t-168 27.5 t-106 141q-8 29 -9.5 81zM86 397.5q-4 -75.5 10.5 -139t46 -110t81.5 -59.5t120 11.5t158 102.5q27 29 26.5 90t-18.5 133t-51 143.5t-72 123.5t-79 76t-72 -3q-51 -41 -78 -100.5t-45 -120.5q-23 -72 -27 -147.5z" />
<glyph unicode="&#xf6;" horiz-adv-x="616" d="M1 261q-1 52 3 108.5t10 107.5t15 78q6 23 28.5 77t56 108.5t74.5 93t82 32.5q49 -12 96.5 -54t87.5 -100.5t70.5 -127t49 -135t21.5 -124t-13 -94.5q-41 -94 -124 -151t-173 -68.5t-168 27.5t-107 141q-8 29 -9 81zM67 397.5q-4 -75.5 10.5 -139t46.5 -110t82 -59.5 t119.5 11.5t157.5 102.5q27 29 27 90t-18.5 133t-51 143.5t-71.5 123.5t-79 76t-73 -3q-51 -41 -77.5 -100.5t-45.5 -120.5q-23 -72 -27 -147.5zM96 1204v8q6 37 37 48q2 0 14.5 1t14.5 1q31 0 34 -28t-12 -44q-6 -10 -25.5 -17.5t-31.5 -11.5h-2q-14 4 -19.5 17.5 t-9.5 25.5zM164 1251l2 -2v2h-2zM342 1204v8q6 37 37 48q2 0 14.5 1t14.5 1q31 0 33.5 -28t-11.5 -44q-6 -10 -25.5 -17.5t-31.5 -11.5h-2q-14 4 -19.5 17.5t-9.5 25.5zM410 1251l2 -2v2h-2z" />
<glyph unicode="&#xf7;" horiz-adv-x="665" d="M-11 743.5q3 12.5 12 23.5t22 15q53 2 124.5 5.5t147.5 6.5t148.5 6t125.5 3h17l14 -6l6 -6q0 -2 2 -3q2 -6 2 -20q-4 -12 -12 -25l-2 -2q-12 -12 -27 -14h-14q-53 0 -125 -3t-146.5 -6t-146.5 -6t-123 -5q-18 2 -23 13t-2 23.5zM258 913v9q6 37 37 47q2 0 14.5 1t14.5 1 q31 0 33.5 -28t-11.5 -44q-6 -10 -25.5 -17.5t-31.5 -11.5h-2q-14 4 -19.5 17.5t-9.5 25.5zM268 567v8q6 37 37 48q2 0 14.5 1t14.5 1q31 0 34 -28t-12 -44q-6 -10 -25.5 -17.5t-31.5 -11.5h-2q-14 4 -19.5 17.5t-9.5 25.5zM326 961l2 -3v3h-2zM336 614l2 -2v2h-2z" />
<glyph unicode="&#xf8;" horiz-adv-x="616" d="M1 261q-1 52 3 108.5t10 107.5t15 78q6 23 28.5 77t56 108.5t74.5 93t82 32.5q49 -12 96.5 -54t87.5 -100.5t70.5 -127t49 -135t21.5 -124t-13 -94.5q-41 -94 -124 -151t-173 -68.5t-168 27.5t-107 141q-8 29 -9 81zM39 -14q-4 -8 23.5 45t162.5 333.5t174.5 365.5 t49.5 120q8 18 21 26.5t24.5 6.5t18.5 -13.5t22 -31.5q-41 -74 -224.5 -454t-210.5 -435q-35 -23 -55 -10.5t-6 47.5zM67 397.5q-4 -75.5 10.5 -139t46.5 -110t82 -59.5t119.5 11.5t157.5 102.5q27 29 27 90t-18.5 133t-51 143.5t-71.5 123.5t-79 76t-73 -3 q-51 -41 -77.5 -100.5t-45.5 -120.5q-23 -72 -27 -147.5z" />
<glyph unicode="&#xf9;" horiz-adv-x="677" d="M1 779q1 50 12.5 79t39.5 4q18 -45 22.5 -119.5t5.5 -160.5t4 -173t19.5 -159t52.5 -117t101 -47q135 68 194.5 153t77 177t10 184t-7.5 174q4 23 19.5 38t40.5 5l10 -8l2 2v-4q10 -10 12 -38t2 -62.5t-2 -72.5t0 -69q0 -61 6.5 -143t13.5 -161t14 -143.5t9 -92.5v-2h-2 q-4 -12 -13 -22.5t-19.5 -13.5t-20.5 1t-16 20v4l-19 295q-12 -51 -58 -114.5t-108.5 -112.5t-132 -72.5t-129.5 2.5q-33 14 -56.5 55t-37.5 95.5t-22.5 117t-12.5 121t-5 107.5t-1 76q0 33 -3 90t-2 107zM114.5 1339q14.5 27 43.5 27q2 0 30.5 -14.5t70.5 -36t90 -46 t89 -47t69 -37t30 -16.5q18 -6 21 -20t-3 -26.5t-19.5 -21.5t-29.5 -5q-6 4 -35 20.5t-70 38t-87 46t-86 45t-68.5 33.5t-32.5 13q-27 20 -12.5 47z" />
<glyph unicode="&#xfa;" horiz-adv-x="677" d="M1 779q1 50 12.5 79t39.5 4q18 -45 22.5 -119.5t5.5 -160.5t4 -173t19.5 -159t52.5 -117t101 -47q135 68 194.5 153t77 177t10 184t-7.5 174q4 23 19.5 38t40.5 5l10 -8l2 2v-4q10 -10 12 -38t2 -62.5t-2 -72.5t0 -69q0 -61 6.5 -143t13.5 -161t14 -143.5t9 -92.5v-2h-2 q-4 -12 -13 -22.5t-19.5 -13.5t-20.5 1t-16 20v4l-19 295q-12 -51 -58 -114.5t-108.5 -112.5t-132 -72.5t-129.5 2.5q-33 14 -56.5 55t-37.5 95.5t-22.5 117t-12.5 121t-5 107.5t-1 76q0 33 -3 90t-2 107zM118 1149q3 14 21 20q2 2 30 16.5t69 37t89 47t90 46t70.5 36 t30.5 14.5q29 0 43.5 -27t-12.5 -47q-6 0 -34 -13t-67.5 -33.5t-86 -45t-87.5 -46t-69.5 -38t-34.5 -20.5q-16 -4 -29.5 5t-19.5 21.5t-3 26.5z" />
<glyph unicode="&#xfb;" horiz-adv-x="677" d="M1 779q1 50 12.5 79t39.5 4q18 -45 22.5 -119.5t5.5 -160.5t4 -173t19.5 -159t52.5 -117t101 -47q135 68 194.5 153t77 177t10 184t-7.5 174q4 23 19.5 38t40.5 5l10 -8l2 2v-4q10 -10 12 -38t2 -62.5t-2 -72.5t0 -69q0 -61 6.5 -143t13.5 -161t14 -143.5t9 -92.5v-2h-2 q-4 -12 -13 -22.5t-19.5 -13.5t-20.5 1t-16 20v4l-19 295q-12 -51 -58 -114.5t-108.5 -112.5t-132 -72.5t-129.5 2.5q-33 14 -56.5 55t-37.5 95.5t-22.5 117t-12.5 121t-5 107.5t-1 76q0 33 -3 90t-2 107zM68.5 1060q-6.5 17 3.5 40q25 37 59.5 81t68 84t58.5 68.5t29 32.5 q23 33 49 31t41 -31q2 0 29.5 -31.5t63.5 -72.5l72 -82t54 -60q10 -27 -5.5 -44t-43.5 5q-29 31 -62.5 66t-63.5 66.5t-52.5 56t-30.5 33.5q-4 2 -19.5 -16.5t-39 -46.5t-50 -60.5t-51 -61t-45 -48t-29.5 -21.5q-29 -6 -35.5 11z" />
<glyph unicode="&#xfc;" horiz-adv-x="677" d="M1 779q1 50 12.5 79t39.5 4q18 -45 22.5 -119.5t5.5 -160.5t4 -173t19.5 -159t52.5 -117t101 -47q135 68 194.5 153t77 177t10 184t-7.5 174q4 23 19.5 38t40.5 5l10 -8l2 2v-4q10 -10 12 -38t2 -62.5t-2 -72.5t0 -69q0 -61 6.5 -143t13.5 -161t14 -143.5t9 -92.5v-2h-2 q-4 -12 -13 -22.5t-19.5 -13.5t-20.5 1t-16 20v4l-19 295q-12 -51 -58 -114.5t-108.5 -112.5t-132 -72.5t-129.5 2.5q-33 14 -56.5 55t-37.5 95.5t-22.5 117t-12.5 121t-5 107.5t-1 76q0 33 -3 90t-2 107zM143 1204v8q6 37 37 48q2 0 14.5 1t14.5 1q31 0 34 -28t-12 -44 q-6 -10 -25.5 -17.5t-31.5 -11.5h-2q-14 4 -19.5 17.5t-9.5 25.5zM211 1251l2 -2v2h-2zM389 1204v8q6 37 37 48q2 0 14.5 1t14.5 1q31 0 34 -28t-12 -44q-6 -10 -25.5 -17.5t-31.5 -11.5h-2q-14 4 -19.5 17.5t-9.5 25.5zM457 1251l2 -2v2h-2z" />
<glyph unicode="&#xfd;" horiz-adv-x="741" d="M0 803q2 12 11 24.5t20.5 18.5t23 3t17.5 -22q8 -53 12 -128.5t12 -159.5t22.5 -168t43 -152.5t74 -113t114.5 -48.5q45 -4 87 8.5t76 34t60.5 50t42.5 59.5q12 76 8.5 143.5t-11 133t-14.5 132t-1 142.5q4 25 15.5 41t33.5 -6q16 -16 25.5 -44t12.5 -60t4 -61.5t1 -49.5 q2 -47 5 -127t4 -175.5t-4 -196.5t-18 -189.5t-37 -156t-62 -93.5q-61 -43 -144.5 -52.5t-162 -1t-140 22.5t-80.5 14q-16 2 -22 11.5t-4 20.5t8 22.5t16 19.5q10 4 8 8t6 0q16 -8 71.5 -24.5t126.5 -22.5t144.5 4t126.5 57q37 33 54.5 88.5t23.5 111.5t6 101.5v57.5 q-141 -98 -241.5 -108.5t-168 40.5t-106.5 147.5t-59.5 210t-28.5 229.5t-12 204zM128 1149q3 14 22 20q2 2 29.5 16.5t68.5 37t89 47t90 46t70.5 36t30.5 14.5q29 0 43.5 -27t-12.5 -47q-6 0 -33.5 -13t-67.5 -33.5t-86 -45t-87 -46t-70 -38t-35 -20.5q-16 -4 -29.5 5 t-19.5 21.5t-3 26.5z" />
<glyph unicode="&#xfe;" horiz-adv-x="935" d="M82 1653q2 16 14.5 28.5t24.5 16.5t22.5 -3t10.5 -30l14 -659q193 55 332 31.5t228 -99.5t128 -186.5t33 -228t-56.5 -227.5t-140.5 -182.5t-220 -92t-296 41.5l-6 -561q0 -41 -17.5 -44t-43.5 14q-2 4 -4.5 16t-3.5 58t1 318.5t-2 677t-18 1111.5zM168 932l8 -791 q145 -59 260 -44.5t196 74.5t125 155.5t50 198t-29 198.5t-113.5 160.5t-201.5 83t-295 -34.5z" />
<glyph unicode="&#xff;" horiz-adv-x="741" d="M0 803q2 12 11 24.5t20.5 18.5t23 3t17.5 -22q8 -53 12 -128.5t12 -159.5t22.5 -168t43 -152.5t74 -113t114.5 -48.5q45 -4 87 8.5t76 34t60.5 50t42.5 59.5q12 76 8.5 143.5t-11 133t-14.5 132t-1 142.5q4 25 15.5 41t33.5 -6q16 -16 25.5 -44t12.5 -60t4 -61.5t1 -49.5 q2 -47 5 -127t4 -175.5t-4 -196.5t-18 -189.5t-37 -156t-62 -93.5q-61 -43 -144.5 -52.5t-162 -1t-140 22.5t-80.5 14q-16 2 -22 11.5t-4 20.5t8 22.5t16 19.5q10 4 8 8t6 0q16 -8 71.5 -24.5t126.5 -22.5t144.5 4t126.5 57q37 33 54.5 88.5t23.5 111.5t6 101.5v57.5 q-141 -98 -241.5 -108.5t-168 40.5t-106.5 147.5t-59.5 210t-28.5 229.5t-12 204zM176 1204v8q6 37 37 48q2 0 14.5 1t14.5 1q31 0 34 -28t-12 -44q-6 -10 -25.5 -17.5t-31.5 -11.5h-2q-14 4 -19.5 17.5t-9.5 25.5zM244 1251l2 -2v2h-2zM422 1204v8q6 37 37 48q2 0 14 1 t14 1q31 0 34 -28t-11 -44q-6 -10 -25.5 -17.5t-31.5 -11.5h-2q-14 4 -19.5 17.5t-9.5 25.5zM489 1251l3 -2v2h-3z" />
<glyph unicode="&#x152;" horiz-adv-x="1488" d="M2 770q-10 172 43 354q10 37 35.5 81t57.5 87t68 81t66 61q162 115 240 141.5t389 24t492 -0.5q20 0 28.5 -10t5 -24.5t-14.5 -26.5t-28 -14q-178 -2 -373.5 -7.5t-373.5 -9.5l2 -620q8 4 16 4q117 0 231.5 5t231.5 5q20 0 28.5 -10t5.5 -24.5t-14.5 -27t-27.5 -14.5 q-119 0 -235.5 -5t-235.5 -5l2 -737q98 0 191.5 5t185.5 11t183 9t188 -3q8 0 13 -10t5 -22.5t-6 -21.5t-19 -5q-76 -8 -179 -13t-211 -8.5t-208 -7.5q-88 -4 -151 -8v-10q-86 10 -164 41q-131 55 -233.5 164.5t-163 254t-70.5 316.5zM81 904.5q-13 -154.5 26.5 -310.5 t129 -276.5t222.5 -190.5q53 -29 112 -43v29q0 51 -1 149t-2 267t-3 421v566q-92 -35 -194 -99q-135 -84 -206 -221t-84 -291.5z" />
<glyph unicode="&#x153;" horiz-adv-x="1024" d="M1 261q-1 52 3 108.5t10 107.5t15 78q6 23 28.5 77t56 108.5t74.5 93t82 32.5q49 -12 97 -55q33 -29 59 -66q14 25 31 46q31 41 78 67q41 23 90 24t97 -15.5t90 -47.5t65.5 -68.5t24.5 -81.5t-32 -87t-86 -66.5t-113.5 -36t-121 -16.5t-109.5 -8q-2 -88 17.5 -173 t64.5 -149q39 -55 103.5 -65.5t129 10t119 62.5t76.5 89q10 14 22.5 18.5t23 1.5t14.5 -14.5t0 -29.5q-39 -78 -103.5 -132.5t-140.5 -76t-155 -4t-144 81.5q-4 2 -8 6h-2q-82 -57 -172 -68.5t-168 27.5t-107 141q-8 29 -9 81zM67 397.5q-4 -75.5 10.5 -139t46.5 -110 t82 -59.5t120 11q43 14 94 50l-2 4q-16 49 -25.5 104t-11.5 110.5t-4 96.5q-6 12 0 27q0 55 6 108q4 29 10 55q-12 18 -24 37q-39 53 -79 77t-73 -3q-51 -41 -77.5 -100.5t-45.5 -120.5q-23 -72 -27 -147.5zM442 530q59 6 135 9.5t134 19.5q31 8 54 28.5t50 37.5 q2 16 7 31.5t1 31.5q-16 55 -64 84t-103.5 30t-106 -26t-70.5 -82q-27 -74 -37 -164z" />
<glyph unicode="&#x178;" horiz-adv-x="1249" d="M-2 1573q2 12 12 24.5t22.5 18.5t25 3t18.5 -22q133 -219 249.5 -435t249.5 -435q43 63 112 172t151 238t167.5 265t159.5 251q12 16 28.5 19t29 -3t16.5 -20.5t-4 -32.5q-53 -84 -116.5 -183.5t-129 -199.5t-128 -195.5t-114 -175.5t-88 -136t-49.5 -77q2 -154 5 -304 t6 -306q0 -16 -10.5 -28.5t-24 -15.5t-25.5 3t-18 27q-2 82 -2 157.5v150.5t-2 151.5t-9 160.5q-33 70 -97 181.5t-140 240.5t-155 261t-140 245zM434 1825v8q6 37 37 47q2 0 14.5 1t14.5 1q31 0 34 -27.5t-12 -44.5q-6 -10 -25.5 -17t-31.5 -11h-2q-14 4 -19.5 17t-9.5 26z M502 1872l2 -2v2h-2zM680 1825v8q6 37 37 47q2 0 14 1t14 1q31 0 34 -27.5t-11 -44.5q-6 -10 -25.5 -17t-31.5 -11h-2q-14 4 -19.5 17t-9.5 26zM748 1872l2 -2v2h-2z" />
<glyph unicode="&#x2c6;" horiz-adv-x="595" d="M25.5 1748q-6.5 17 3.5 40q25 37 59.5 81t68 84t58.5 68.5t29 32.5q23 33 49 31t41 -31q2 0 29.5 -31.5t63.5 -72.5l72 -82t54 -60q10 -27 -5.5 -44t-43.5 5q-29 31 -62.5 66t-63.5 66.5t-52.5 56t-30.5 33.5q-4 2 -19.5 -16.5t-39 -46t-50 -60.5t-51 -61.5t-45 -48 t-29.5 -21.5q-29 -6 -35.5 11z" />
<glyph unicode="&#x2dc;" horiz-adv-x="720" d="M25 1741q45 98 82.5 149.5t71.5 67.5t65.5 3t60.5 -43t57.5 -69t59.5 -75q14 -18 40.5 -5t51.5 42.5t44.5 64.5t19.5 59q2 14 13 23.5t23.5 10.5t22.5 -6t10 -26q-2 -47 -30.5 -100t-66.5 -93t-80 -57.5t-71 7.5q-25 20 -47 54t-44.5 64.5t-45 51t-47.5 17.5t-53.5 -37.5 t-61.5 -114.5q-4 -16 -16 -23.5t-26.5 -5.5t-24.5 12t-8 29z" />
<glyph unicode="&#x2000;" horiz-adv-x="1047" />
<glyph unicode="&#x2001;" horiz-adv-x="2095" />
<glyph unicode="&#x2002;" horiz-adv-x="1047" />
<glyph unicode="&#x2003;" horiz-adv-x="2095" />
<glyph unicode="&#x2004;" horiz-adv-x="698" />
<glyph unicode="&#x2005;" horiz-adv-x="523" />
<glyph unicode="&#x2006;" horiz-adv-x="349" />
<glyph unicode="&#x2007;" horiz-adv-x="349" />
<glyph unicode="&#x2008;" horiz-adv-x="261" />
<glyph unicode="&#x2009;" horiz-adv-x="419" />
<glyph unicode="&#x200a;" horiz-adv-x="116" />
<glyph unicode="&#x2010;" horiz-adv-x="526" d="M-11 696.5q3 12.5 12 23.5t22 15q106 4 210.5 12.5t212.5 10.5h17l14 -6l6 -7q0 -2 2 -2q2 -6 2 -20q-4 -12 -12 -25l-2 -2q-12 -12 -27 -14h-14q-106 -2 -210 -10.5t-208 -12.5q-18 2 -23 13.5t-2 24z" />
<glyph unicode="&#x2011;" horiz-adv-x="526" d="M-11 696.5q3 12.5 12 23.5t22 15q106 4 210.5 12.5t212.5 10.5h17l14 -6l6 -7q0 -2 2 -2q2 -6 2 -20q-4 -12 -12 -25l-2 -2q-12 -12 -27 -14h-14q-106 -2 -210 -10.5t-208 -12.5q-18 2 -23 13.5t-2 24z" />
<glyph unicode="&#x2012;" horiz-adv-x="526" d="M-11 696.5q3 12.5 12 23.5t22 15q106 4 210.5 12.5t212.5 10.5h17l14 -6l6 -7q0 -2 2 -2q2 -6 2 -20q-4 -12 -12 -25l-2 -2q-12 -12 -27 -14h-14q-106 -2 -210 -10.5t-208 -12.5q-18 2 -23 13.5t-2 24z" />
<glyph unicode="&#x2013;" horiz-adv-x="1051" d="M-10 696.5q6 12.5 24.5 23.5t45.5 15q218 4 432 12.5t436 10.5h35l28 -6l13 -7q0 -2 4 -2q4 -6 4 -20q-8 -12 -25 -25l-4 -2q-24 -12 -55 -14h-29q-217 -2 -430.5 -10.5t-426.5 -12.5q-37 2 -47.5 13.5t-4.5 24z" />
<glyph unicode="&#x2014;" horiz-adv-x="2075" d="M-7.5 696.5q12.5 12.5 49.5 23.5t90 15q435 4 864 12.5t872 10.5h70l57 -6l25 -7q0 -2 8 -2q8 -6 8 -20q-16 -12 -49 -25l-8 -2q-50 -12 -111 -14h-58q-435 -2 -861.5 -10.5t-853.5 -12.5q-74 2 -94.5 13.5t-8 24z" />
<glyph unicode="&#x202f;" horiz-adv-x="419" />
<glyph unicode="&#x205f;" horiz-adv-x="523" />
<glyph unicode="&#x20ac;" horiz-adv-x="786" d="M-3 860q3 12 12 23.5t22 15.5q18 0 29.5 1t20.5 1h20.5t27.5 2q12 96 47 179t94.5 144.5t146.5 94.5t201 29q20 0 27.5 -9.5t6.5 -21.5t-9 -24.5t-20 -18.5q-98 4 -172 -21.5t-125.5 -75t-81 -119t-41.5 -149.5q4 0 50 4.5t106.5 7.5t123 7t97.5 4q20 0 28 -10.5t5 -24.5 t-14 -26.5t-28 -14.5q-35 -2 -94 -5t-117.5 -7t-105.5 -7t-57 -3q-4 -86 18 -166q102 8 174 15t119 11q53 6 90 11v-2q16 2 23.5 -6.5t7.5 -20.5t-7.5 -25.5t-19.5 -19.5q-8 -4 -49 -9.5t-94 -10.5t-112.5 -10t-104.5 -11q27 -61 66.5 -116.5t94 -93.5t125 -52.5t160.5 6.5 h8q14 -2 23 -14q2 -2 2 -7q4 -8 0 -14q-4 -12 -12 -25l-4 -4q-8 -8 -25 -12q-104 -14 -187 7.5t-145.5 67.5t-106.5 110.5t-73 136.5q-68 -8 -90.5 -9.5t-38.5 -1.5q-18 2 -23.5 13.5t-2.5 24t12.5 23.5t21.5 15q20 0 30.5 1t18.5 2t17.5 2t29.5 5q-23 82 -18 172 q-35 -4 -51.5 -4t-50.5 -2q-18 2 -23.5 13.5t-2.5 23.5z" />
<glyph unicode="&#xe000;" horiz-adv-x="870" d="M0 0v870h870v-870h-870z" />
</font>
</defs>
</svg>
